<svg width="150" height="150" viewBox="0 0 150 150" fill="none" xmlns="http://www.w3.org/2000/svg">
<path d="M147.797 74.643C147.797 114.841 115.209 147.43 75.0094 147.43C34.8109 147.43 2.22266 114.841 2.22266 74.643C2.22266 34.4433 34.8109 1.8551 75.0094 1.8551C115.209 1.8551 147.797 34.4433 147.797 74.643V74.643Z" fill="#FD6149"/>
<path d="M32.7463 74.643C32.7463 39.6801 57.4015 10.4862 90.2712 3.47101C85.3491 2.42044 80.2462 1.8551 75.0094 1.8551C34.8097 1.8551 2.22266 34.4433 2.22266 74.643C2.22266 114.841 34.8097 147.43 75.0094 147.43C80.2462 147.43 85.3491 146.865 90.2712 145.814C57.4015 138.799 32.7463 109.606 32.7463 74.643Z" fill="#DF412D"/>
<path d="M103.186 74.6429C103.186 90.2035 90.571 102.818 75.0093 102.818C59.4488 102.818 46.834 90.2035 46.834 74.6429C46.834 59.0813 59.4488 46.4664 75.0093 46.4664C90.571 46.4664 103.186 59.0813 103.186 74.6429V74.6429Z" fill="#D9EEF7"/>
<path d="M86.7499 74.643C86.7499 81.126 81.4936 86.3823 75.0094 86.3823C68.5263 86.3823 63.27 81.126 63.27 74.643C63.27 68.1587 68.5263 62.9025 75.0094 62.9025C81.4936 62.9025 86.7499 68.1587 86.7499 74.643V74.643Z" fill="#AAC4DA"/>
<path d="M124.317 30.0304C128.215 30.0304 131.361 33.1775 131.361 37.0754C131.361 40.9721 128.215 44.1192 124.317 44.1192C120.419 44.1192 117.273 40.9721 117.273 37.0754C117.273 33.1775 120.419 30.0304 124.317 30.0304V30.0304Z" fill="#D9EEF7"/>
<path d="M100.837 34.7271C104.735 34.7271 107.881 37.873 107.881 41.7709C107.881 45.6687 104.735 48.8147 100.837 48.8147C96.9394 48.8147 93.7935 45.6687 93.7935 41.7709C93.7935 37.873 96.9394 34.7271 100.837 34.7271V34.7271Z" fill="#D9EEF7"/>
<path d="M114.925 1.8551C133.076 1.8551 147.797 16.5768 147.797 34.7271C147.797 52.8763 133.074 67.598 114.925 67.598C96.776 67.598 82.0532 52.8763 82.0532 34.7271C82.0532 16.5768 96.776 1.8551 114.925 1.8551V1.8551ZM131.361 37.0743C131.361 33.1764 128.215 30.0305 124.317 30.0305C120.42 30.0305 117.274 33.1764 117.274 37.0743C117.274 40.9722 120.42 44.1181 124.317 44.1181C128.215 44.1181 131.361 40.9722 131.361 37.0743ZM107.881 41.771C107.881 37.8731 104.735 34.7271 100.838 34.7271C96.9397 34.7271 93.7937 37.8731 93.7937 41.771C93.7937 45.6688 96.9397 48.8148 100.838 48.8148C104.735 48.8148 107.881 45.6688 107.881 41.771Z" fill="#31E8BB"/>
<path d="M23.2096 75H18.7842C18.7842 44.0025 44.0024 18.7843 74.9998 18.7843V23.2086C46.4423 23.2086 23.2096 46.4424 23.2096 75Z" fill="white"/>
<path d="M61.0474 75C61.0474 82.6939 67.3061 88.9526 75 88.9526C82.6939 88.9526 88.9526 82.6939 88.9526 75C88.9526 67.3073 82.6939 61.0474 75 61.0474C67.3061 61.0474 61.0474 67.3061 61.0474 75ZM84.5272 75C84.5272 80.254 80.254 84.5272 75 84.5272C69.7472 84.5272 65.4728 80.254 65.4728 75C65.4728 69.746 69.7472 65.4728 75 65.4728C80.254 65.4728 84.5272 69.746 84.5272 75Z" fill="#231F20"/>
<path d="M18.6479 79.8317H23.3446V84.256H18.6479V79.8317Z" fill="#231F20"/>
<path d="M18.6479 89.2228H23.3446V93.6482H18.6479V89.2228Z" fill="#231F20"/>
<path d="M150 35.0841C150 27.8675 147.824 20.9346 143.707 15.0341L140.078 17.5666C143.673 22.7199 145.574 28.7784 145.574 35.0841C145.574 51.9904 131.821 65.7439 114.916 65.7439C98.0104 65.7439 84.257 51.9904 84.257 35.0841C84.257 18.1789 98.0104 4.42542 114.916 4.42542C122.985 4.42542 130.604 7.53592 136.369 13.1847L139.465 10.0239C132.869 3.56025 124.15 0 114.916 0C109.141 0 103.689 1.40304 98.879 3.88526C91.2035 1.3092 83.1721 0 74.9998 0C67.5841 0 60.2587 1.08032 53.2264 3.21006L54.5092 7.44551C61.1251 5.44166 68.019 4.42542 74.9998 4.42542C81.4406 4.42542 87.7874 5.28945 93.9203 6.99233C85.3728 13.3964 79.8315 23.6057 79.8315 35.0841C79.8315 38.6283 80.3614 42.0489 81.3433 45.2762C79.2685 44.8356 77.1468 44.6113 74.9998 44.6113C58.2446 44.6113 44.6124 58.2434 44.6124 74.9999C44.6124 91.7563 58.2446 105.388 74.9998 105.388C81.0091 105.388 86.8193 103.636 91.8043 100.323L89.3541 96.6372C85.0981 99.4673 80.1337 100.963 74.9998 100.963C60.6833 100.963 49.0367 89.3164 49.0367 74.9999C49.0367 60.6833 60.6833 49.0367 74.9998 49.0367C77.8666 49.0367 80.6784 49.5048 83.3643 50.418C86.8033 57.4653 92.5344 63.1964 99.5817 66.6354C100.495 69.3213 100.963 72.132 100.963 74.9999C100.963 81.3982 98.6147 87.5448 94.3518 92.3079L97.6499 95.2593C102.64 89.6849 105.388 82.49 105.388 74.9999C105.388 72.8529 105.164 70.7312 104.724 68.6576C107.951 69.6383 111.371 70.1693 114.916 70.1693C126.394 70.1693 136.603 64.6281 143.007 56.0794C144.71 62.2134 145.574 68.5591 145.574 74.9999C145.574 93.8517 138.233 111.575 124.903 124.904C111.574 138.234 93.8505 145.574 74.9998 145.574C56.148 145.574 38.4257 138.234 25.0957 124.904C11.7668 111.574 4.42542 93.8517 4.42542 74.9999C4.42542 60.8287 8.60823 47.161 16.5229 35.4755C24.2488 24.0669 35.0234 15.2252 47.6806 9.90599L45.9662 5.82732C32.516 11.4784 21.0674 20.8728 12.8586 32.9933C4.44602 45.4146 0 59.9395 0 74.9999C0 95.0327 7.80142 113.867 21.9669 128.033C36.1324 142.198 54.967 150 74.9998 150C95.0327 150 113.867 142.198 128.033 128.033C142.198 113.867 150 95.0338 150 74.9999C150 66.8276 148.69 58.7962 146.114 51.1207C148.597 46.3119 150 40.8588 150 35.0841Z" fill="#231F20"/>
<path d="M124.308 28.1765C119.204 28.1765 115.051 32.3284 115.051 37.4324C115.051 42.5365 119.204 46.6896 124.308 46.6896C129.412 46.6896 133.564 42.5365 133.564 37.4324V15.6749L105.66 24.0463V34.2361C104.252 33.3721 102.598 32.872 100.828 32.872C95.7243 32.872 91.5713 37.0239 91.5713 42.1279C91.5713 47.232 95.7243 51.3851 100.828 51.3851C105.932 51.3851 110.084 47.232 110.084 42.1279V27.3387L129.139 21.6224V29.5406C127.732 28.6754 126.078 28.1765 124.308 28.1765V28.1765ZM100.828 46.9596C98.1642 46.9596 95.9967 44.7921 95.9967 42.1279C95.9967 39.4649 98.1642 37.2974 100.828 37.2974C103.493 37.2974 105.66 39.4649 105.66 42.1279C105.66 44.7921 103.493 46.9596 100.828 46.9596ZM124.308 42.2641C121.644 42.2641 119.477 40.0966 119.477 37.4324C119.477 34.7682 121.644 32.6007 124.308 32.6007C126.971 32.6007 129.139 34.7682 129.139 37.4324C129.139 40.0966 126.972 42.2641 124.308 42.2641Z" fill="#231F20"/>
</svg>
