<svg height="512pt" viewBox="0 0 512 512.00101" width="512pt" xmlns="http://www.w3.org/2000/svg"><path d="m504.480469 254.78125c0 137.210938-111.234375 248.445312-248.449219 248.445312-137.210938 0-248.445312-111.234374-248.445312-248.445312 0-137.214844 111.234374-248.449219 248.445312-248.449219 137.214844 0 248.449219 111.234375 248.449219 248.449219zm0 0" fill="#fd6149"/><path d="m111.773438 254.78125c0-119.339844 84.15625-218.988281 196.351562-242.933594-16.800781-3.585937-34.21875-5.515625-52.09375-5.515625-137.214844 0-248.445312 111.234375-248.445312 248.449219 0 137.210938 111.230468 248.445312 248.445312 248.445312 17.875 0 35.292969-1.925781 52.09375-5.515624-112.195312-23.945313-196.351562-123.589844-196.351562-242.929688zm0 0" fill="#df412d"/><path d="m352.207031 254.78125c0 53.113281-43.058593 96.171875-96.175781 96.171875-53.113281 0-96.171875-43.058594-96.171875-96.171875 0-53.117188 43.058594-96.175781 96.171875-96.175781 53.117188 0 96.175781 43.058593 96.175781 96.175781zm0 0" fill="#d9eef7"/><path d="m296.105469 254.78125c0 22.128906-17.941407 40.070312-40.074219 40.070312-22.128906 0-40.070312-17.941406-40.070312-40.070312 0-22.132812 17.941406-40.074219 40.070312-40.074219 22.132812 0 40.074219 17.941407 40.074219 40.074219zm0 0" fill="#aac4da"/><path d="m424.335938 102.503906c13.304687 0 24.042968 10.742188 24.042968 24.046875 0 13.300781-10.738281 24.042969-24.042968 24.042969-13.304688 0-24.042969-10.742188-24.042969-24.042969 0-13.304687 10.738281-24.046875 24.042969-24.046875zm0 0" fill="#d9eef7"/><path d="m344.191406 118.535156c13.304688 0 24.042969 10.738282 24.042969 24.042969s-10.738281 24.042969-24.042969 24.042969c-13.304687 0-24.042968-10.738282-24.042968-24.042969s10.738281-24.042969 24.042968-24.042969zm0 0" fill="#d9eef7"/><path d="m392.277344 6.332031c61.953125 0 112.203125 50.25 112.203125 112.203125 0 61.949219-50.253907 112.199219-112.203125 112.199219-61.949219 0-112.203125-50.25-112.203125-112.199219 0-61.953125 50.253906-112.203125 112.203125-112.203125zm56.101562 120.214844c0-13.304687-10.738281-24.042969-24.042968-24.042969-13.304688 0-24.042969 10.738282-24.042969 24.042969s10.738281 24.042969 24.042969 24.042969c13.304687 0 24.042968-10.738282 24.042968-24.042969zm-80.144531 16.03125c0-13.304687-10.738281-24.042969-24.042969-24.042969-13.304687 0-24.042968 10.738282-24.042968 24.042969s10.738281 24.042969 24.042968 24.042969c13.304688 0 24.042969-10.738282 24.042969-24.042969zm0 0" fill="#31e8bb"/><path d="m79.222656 256h-15.105468c0-105.804688 86.078124-191.882812 191.882812-191.882812v15.101562c-97.476562 0-176.777344 79.304688-176.777344 176.78125zm0 0" fill="#fff"/><g fill="#231f20"><path d="m208.375 256c0 26.261719 21.363281 47.625 47.625 47.625s47.625-21.363281 47.625-47.625c0-26.257812-21.363281-47.625-47.625-47.625s-47.625 21.363281-47.625 47.625zm80.144531 0c0 17.933594-14.585937 32.519531-32.519531 32.519531-17.929688 0-32.519531-14.585937-32.519531-32.519531s14.589843-32.519531 32.519531-32.519531c17.933594 0 32.519531 14.585937 32.519531 32.519531zm0 0"/><path d="m63.652344 272.492188h16.03125v15.101562h-16.03125zm0 0"/><path d="m63.652344 304.546875h16.03125v15.105469h-16.03125zm0 0"/><path d="m512 119.753906c0-24.632812-7.425781-48.296875-21.480469-68.4375l-12.386719 8.644532c12.273438 17.589843 18.761719 38.269531 18.761719 59.792968 0 57.707032-46.945312 104.652344-104.648437 104.652344s-104.648438-46.945312-104.648438-104.652344c0-57.703125 46.945313-104.648437 104.648438-104.648437 27.542968 0 53.550781 10.617187 73.226562 29.898437l10.570313-10.789062c-22.515625-22.0625-52.277344-34.214844-83.796875-34.214844-19.710938 0-38.320313 4.789062-54.738282 13.261719-26.199218-8.792969-53.613281-13.261719-81.507812-13.261719-25.3125 0-50.316406 3.6875-74.320312 10.957031l4.378906 14.457031c22.582031-6.839843 46.113281-10.308593 69.941406-10.308593 21.984375 0 43.648438 2.949219 64.582031 8.761719-29.175781 21.859374-48.089843 56.707031-48.089843 95.886718 0 12.097656 1.808593 23.773438 5.160156 34.789063-7.082032-1.503907-14.324219-2.269531-21.652344-2.269531-57.191406 0-103.722656 46.53125-103.722656 103.726562s46.53125 103.726562 103.722656 103.726562c20.511719 0 40.34375-5.980468 57.359375-17.289062l-8.363281-12.582031c-14.527344 9.660156-31.472656 14.765625-48.996094 14.765625-48.867188 0-88.621094-39.753906-88.621094-88.621094s39.753906-88.621094 88.621094-88.621094c9.785156 0 19.382812 1.597656 28.550781 4.714844 11.738281 24.054688 31.300781 43.617188 55.355469 55.355469 3.117188 9.167969 4.714844 18.761719 4.714844 28.550781 0 21.839844-8.015625 42.820312-22.566406 59.078125l11.257812 10.074219c17.03125-19.027344 26.414062-43.585938 26.414062-69.152344 0-7.328125-.765624-14.570312-2.269531-21.648438 11.015625 3.347657 22.691407 5.160157 34.789063 5.160157 39.179687 0 74.027344-18.914063 95.886718-48.09375 5.8125 20.9375 8.761719 42.597656 8.761719 64.582031 0 64.347656-25.058593 124.84375-70.558593 170.339844-45.496094 45.5-105.992188 70.554687-170.335938 70.554687-64.347656 0-124.839844-25.054687-170.339844-70.554687-45.496094-45.5-70.554687-105.992188-70.554687-170.339844 0-48.371094 14.277343-95.023438 41.292969-134.910156 26.371093-38.941406 63.148437-69.121094 106.351562-87.277344l-5.851562-13.921875c-45.910157 19.289063-84.988282 51.355469-113.007813 92.726563-28.714844 42.398437-43.890625 91.976562-43.890625 143.382812 0 68.378906 26.628906 132.667969 74.980469 181.019531 48.351562 48.351563 112.640625 74.980469 181.019531 74.980469s132.667969-26.628906 181.019531-74.980469c48.351563-48.351562 74.980469-112.636719 74.980469-181.019531 0-27.894531-4.46875-55.308594-13.261719-81.507812 8.472657-16.414063 13.261719-35.027344 13.261719-54.738282zm0 0"/><path d="m424.304688 96.175781c-17.421876 0-31.597657 14.171875-31.597657 31.59375s14.175781 31.597657 31.597657 31.597657c17.421874 0 31.59375-14.175782 31.59375-31.597657v-74.265625l-95.246094 28.574219v34.78125c-4.804688-2.949219-10.453125-4.65625-16.492188-4.65625-17.421875 0-31.597656 14.171875-31.597656 31.59375s14.175781 31.597656 31.597656 31.597656 31.59375-14.175781 31.59375-31.597656v-50.480469l65.039063-19.511718v27.027343c-4.800781-2.953125-10.449219-4.65625-16.488281-4.65625zm-80.144532 64.113281c-9.09375 0-16.492187-7.398437-16.492187-16.492187 0-9.089844 7.398437-16.488281 16.492187-16.488281s16.492188 7.398437 16.492188 16.488281c0 9.09375-7.398438 16.492187-16.492188 16.492187zm80.144532-16.027343c-9.09375 0-16.492188-7.398438-16.492188-16.492188s7.398438-16.492187 16.492188-16.492187c9.089843 0 16.488281 7.398437 16.488281 16.492187s-7.394531 16.492188-16.488281 16.492188zm0 0"/></g></svg>