<svg width="76" height="76" viewBox="0 0 76 76" fill="none" xmlns="http://www.w3.org/2000/svg">
<circle cx="38" cy="38" r="38" fill="#E4E4E4"/>
<path d="M57.4125 37.9048C57.4125 48.6244 48.7224 57.3146 38.0024 57.3146C27.2828 57.3146 18.5927 48.6244 18.5927 37.9048C18.5927 27.1849 27.2828 18.4947 38.0024 18.4947C48.7224 18.4947 57.4125 27.1849 57.4125 37.9048V37.9048Z" fill="#FD6149"/>
<path d="M26.7323 37.9048C26.7323 28.5814 33.307 20.7963 42.0723 18.9256C40.7597 18.6454 39.3989 18.4947 38.0024 18.4947C27.2825 18.4947 18.5927 27.1849 18.5927 37.9048C18.5927 48.6244 27.2825 57.3146 38.0024 57.3146C39.3989 57.3146 40.7597 57.1641 42.0723 56.8837C33.307 55.0129 26.7323 47.2282 26.7323 37.9048Z" fill="#DF412D"/>
<path d="M45.5162 37.9048C45.5162 42.0543 42.1522 45.4182 38.0024 45.4182C33.853 45.4182 30.489 42.0543 30.489 37.9048C30.489 33.755 33.853 30.3911 38.0024 30.3911C42.1522 30.3911 45.5162 33.755 45.5162 37.9048V37.9048Z" fill="#D9EEF7"/>
<path d="M41.1332 37.9048C41.1332 39.6336 39.7316 41.0353 38.0024 41.0353C36.2736 41.0353 34.8719 39.6336 34.8719 37.9048C34.8719 36.1757 36.2736 34.774 38.0024 34.774C39.7316 34.774 41.1332 36.1757 41.1332 37.9048V37.9048Z" fill="#AAC4DA"/>
<path d="M51.1513 26.0081C52.1907 26.0081 53.0297 26.8474 53.0297 27.8868C53.0297 28.9259 52.1907 29.7651 51.1513 29.7651C50.1119 29.7651 49.2729 28.9259 49.2729 27.8868C49.2729 26.8474 50.1119 26.0081 51.1513 26.0081V26.0081Z" fill="#D9EEF7"/>
<path d="M44.89 27.2606C45.9294 27.2606 46.7683 28.0995 46.7683 29.1389C46.7683 30.1783 45.9294 31.0173 44.89 31.0173C43.8505 31.0173 43.0116 30.1783 43.0116 29.1389C43.0116 28.0995 43.8505 27.2606 44.89 27.2606V27.2606Z" fill="#D9EEF7"/>
<path d="M48.6467 18.4947C53.4868 18.4947 57.4126 22.4205 57.4126 27.2606C57.4126 32.1003 53.4865 36.0261 48.6467 36.0261C43.8069 36.0261 39.8809 32.1003 39.8809 27.2606C39.8809 22.4205 43.8069 18.4947 48.6467 18.4947V18.4947ZM53.0297 27.8865C53.0297 26.847 52.1907 26.0081 51.1513 26.0081C50.1119 26.0081 49.2729 26.847 49.2729 27.8865C49.2729 28.9259 50.1119 29.7648 51.1513 29.7648C52.1907 29.7648 53.0297 28.9259 53.0297 27.8865ZM46.7684 29.1389C46.7684 28.0995 45.9294 27.2606 44.89 27.2606C43.8506 27.2606 43.0117 28.0995 43.0117 29.1389C43.0117 30.1783 43.8506 31.0173 44.89 31.0173C45.9294 31.0173 46.7684 30.1783 46.7684 29.1389Z" fill="#31E8BB"/>
<path d="M24.1893 38H23.0092C23.0092 29.734 29.734 23.0092 38 23.0092V24.189C30.3846 24.189 24.1893 30.3846 24.1893 38Z" fill="white"/>
<path d="M34.2793 38C34.2793 40.0517 35.9483 41.7207 38 41.7207C40.0517 41.7207 41.7207 40.0517 41.7207 38C41.7207 35.9486 40.0517 34.2793 38 34.2793C35.9483 34.2793 34.2793 35.9483 34.2793 38ZM40.5406 38C40.5406 39.4011 39.4011 40.5406 38 40.5406C36.5992 40.5406 35.4594 39.4011 35.4594 38C35.4594 36.5989 36.5992 35.4594 38 35.4594C39.4011 35.4594 40.5406 36.5989 40.5406 38Z" fill="#231F20"/>
<path d="M22.9729 39.2885H24.2253V40.4683H22.9729V39.2885Z" fill="#231F20"/>
<path d="M22.9729 41.7927H24.2253V42.9728H22.9729V41.7927Z" fill="#231F20"/>
<path d="M57.9999 27.3558C57.9999 25.4313 57.4198 23.5826 56.3218 22.0091L55.3541 22.6844C56.3129 24.0586 56.8198 25.6742 56.8198 27.3558C56.8198 31.8641 53.1522 35.5317 48.6442 35.5317C44.1361 35.5317 40.4685 31.8641 40.4685 27.3558C40.4685 22.8477 44.1361 19.1801 48.6442 19.1801C50.796 19.1801 52.8278 20.0096 54.365 21.5159L55.1908 20.673C53.4318 18.9494 51.1066 18 48.6442 18C47.1043 18 45.6504 18.3741 44.3677 19.0361C42.3209 18.3491 40.1792 18 38 18C36.0224 18 34.069 18.2881 32.1937 18.856L32.5358 19.9855C34.3 19.4511 36.1384 19.1801 38 19.1801C39.7175 19.1801 41.41 19.4105 43.0454 19.8646C40.7661 21.5724 39.2884 24.2948 39.2884 27.3558C39.2884 28.3009 39.4297 29.2131 39.6915 30.0736C39.1383 29.9562 38.5725 29.8963 38 29.8963C33.5319 29.8963 29.8966 33.5316 29.8966 38C29.8966 42.4683 33.5319 46.1036 38 46.1036C39.6024 46.1036 41.1518 45.6364 42.4812 44.7529L41.8278 43.7699C40.6928 44.5246 39.369 44.9235 38 44.9235C34.1822 44.9235 31.0765 41.8177 31.0765 38C31.0765 34.1822 34.1822 31.0765 38 31.0765C38.7644 31.0765 39.5142 31.2013 40.2305 31.4448C41.1475 33.3241 42.6759 34.8524 44.5551 35.7694C44.7987 36.4857 44.9235 37.2352 44.9235 38C44.9235 39.7062 44.2972 41.3453 43.1605 42.6154L44.04 43.4025C45.3706 41.916 46.1036 39.9973 46.1036 38C46.1036 37.4275 46.0438 36.8617 45.9263 36.3087C46.7869 36.5702 47.699 36.7118 48.6442 36.7118C51.7051 36.7118 54.4275 35.2342 56.1353 32.9545C56.5894 34.5902 56.8198 36.2824 56.8198 38C56.8198 43.0271 54.8621 47.7534 51.3074 51.3077C47.7531 54.8624 43.0268 56.8198 38 56.8198C32.9728 56.8198 28.2469 54.8624 24.6922 51.3077C21.1378 47.7531 19.1801 43.0271 19.1801 38C19.1801 34.221 20.2955 30.5763 22.4061 27.4601C24.4664 24.4178 27.3396 22.0601 30.7148 20.6416L30.2577 19.554C26.6709 21.0609 23.618 23.5661 21.4289 26.7982C19.1856 30.1106 18 33.9839 18 38C18 43.3421 20.0804 48.3646 23.8578 52.1421C27.6353 55.9195 32.6579 57.9999 38 57.9999C43.3421 57.9999 48.3646 55.9195 52.1421 52.1421C55.9195 48.3646 57.9999 43.3424 57.9999 38C57.9999 35.8207 57.6508 33.679 56.9639 31.6322C57.6258 30.3498 57.9999 28.8957 57.9999 27.3558Z" fill="#231F20"/>
<path d="M51.1488 25.5137C49.7877 25.5137 48.6802 26.6209 48.6802 27.982C48.6802 29.3431 49.7877 30.4506 51.1488 30.4506C52.5099 30.4506 53.6171 29.3431 53.6171 27.982V22.18L46.176 24.4124V27.1296C45.8006 26.8992 45.3593 26.7659 44.8875 26.7659C43.5264 26.7659 42.4189 27.873 42.4189 29.2341C42.4189 30.5952 43.5264 31.7027 44.8875 31.7027C46.2486 31.7027 47.3558 30.5952 47.3558 29.2341V25.2903L52.437 23.766V25.8775C52.0619 25.6468 51.6206 25.5137 51.1488 25.5137V25.5137ZM44.8875 30.5226C44.1771 30.5226 43.5991 29.9446 43.5991 29.2341C43.5991 28.524 44.1771 27.946 44.8875 27.946C45.598 27.946 46.176 28.524 46.176 29.2341C46.176 29.9446 45.598 30.5226 44.8875 30.5226ZM51.1488 29.2704C50.4384 29.2704 49.8604 28.6924 49.8604 27.982C49.8604 27.2715 50.4384 26.6935 51.1488 26.6935C51.8589 26.6935 52.437 27.2715 52.437 27.982C52.437 28.6924 51.8593 29.2704 51.1488 29.2704Z" fill="#231F20"/>
</svg>
