<svg width="134" height="155" viewBox="0 0 134 155" fill="none" xmlns="http://www.w3.org/2000/svg">
<rect width="134" height="155" rx="8" fill="#F4F4F4"/>
<circle cx="67" cy="58" r="38" fill="#E4E4E4"/>
<path d="M39.0775 119.09C38.7295 118.358 38.2255 117.794 37.5655 117.398C36.9055 116.99 36.1375 116.786 35.2615 116.786C34.3855 116.786 33.5935 116.99 32.8855 117.398C32.1895 117.794 31.6375 118.37 31.2295 119.126C30.8335 119.87 30.6355 120.734 30.6355 121.718C30.6355 122.702 30.8335 123.566 31.2295 124.31C31.6375 125.054 32.1895 125.63 32.8855 126.038C33.5935 126.434 34.3855 126.632 35.2615 126.632C36.4855 126.632 37.4935 126.266 38.2855 125.534C39.0775 124.802 39.5395 123.812 39.6715 122.564H34.6675V121.232H41.4175V122.492C41.3215 123.524 40.9975 124.472 40.4455 125.336C39.8935 126.188 39.1675 126.866 38.2675 127.37C37.3675 127.862 36.3655 128.108 35.2615 128.108C34.0975 128.108 33.0355 127.838 32.0755 127.298C31.1155 126.746 30.3535 125.984 29.7895 125.012C29.2375 124.04 28.9615 122.942 28.9615 121.718C28.9615 120.494 29.2375 119.396 29.7895 118.424C30.3535 117.44 31.1155 116.678 32.0755 116.138C33.0355 115.586 34.0975 115.31 35.2615 115.31C36.5935 115.31 37.7695 115.64 38.7895 116.3C39.8215 116.96 40.5715 117.89 41.0395 119.09H39.0775ZM42.9713 123.032C42.9713 122.024 43.1753 121.142 43.5833 120.386C43.9913 119.618 44.5493 119.024 45.2573 118.604C45.9773 118.184 46.7753 117.974 47.6513 117.974C48.5153 117.974 49.2653 118.16 49.9013 118.532C50.5373 118.904 51.0113 119.372 51.3233 119.936V118.136H52.9793V128H51.3233V126.164C50.9993 126.74 50.5133 127.22 49.8653 127.604C49.2293 127.976 48.4853 128.162 47.6333 128.162C46.7573 128.162 45.9653 127.946 45.2573 127.514C44.5493 127.082 43.9913 126.476 43.5833 125.696C43.1753 124.916 42.9713 124.028 42.9713 123.032ZM51.3233 123.05C51.3233 122.306 51.1733 121.658 50.8733 121.106C50.5733 120.554 50.1653 120.134 49.6493 119.846C49.1453 119.546 48.5873 119.396 47.9753 119.396C47.3633 119.396 46.8053 119.54 46.3013 119.828C45.7973 120.116 45.3953 120.536 45.0953 121.088C44.7953 121.64 44.6453 122.288 44.6453 123.032C44.6453 123.788 44.7953 124.448 45.0953 125.012C45.3953 125.564 45.7973 125.99 46.3013 126.29C46.8053 126.578 47.3633 126.722 47.9753 126.722C48.5873 126.722 49.1453 126.578 49.6493 126.29C50.1653 125.99 50.5733 125.564 50.8733 125.012C51.1733 124.448 51.3233 123.794 51.3233 123.05ZM55.1353 123.032C55.1353 122.024 55.3393 121.142 55.7473 120.386C56.1553 119.618 56.7133 119.024 57.4213 118.604C58.1413 118.184 58.9453 117.974 59.8333 117.974C60.6013 117.974 61.3153 118.154 61.9753 118.514C62.6353 118.862 63.1393 119.324 63.4873 119.9V114.68H65.1433V128H63.4873V126.146C63.1633 126.734 62.6833 127.22 62.0473 127.604C61.4113 127.976 60.6673 128.162 59.8153 128.162C58.9393 128.162 58.1413 127.946 57.4213 127.514C56.7133 127.082 56.1553 126.476 55.7473 125.696C55.3393 124.916 55.1353 124.028 55.1353 123.032ZM63.4873 123.05C63.4873 122.306 63.3373 121.658 63.0373 121.106C62.7373 120.554 62.3293 120.134 61.8133 119.846C61.3093 119.546 60.7513 119.396 60.1393 119.396C59.5273 119.396 58.9693 119.54 58.4653 119.828C57.9613 120.116 57.5593 120.536 57.2593 121.088C56.9593 121.64 56.8093 122.288 56.8093 123.032C56.8093 123.788 56.9593 124.448 57.2593 125.012C57.5593 125.564 57.9613 125.99 58.4653 126.29C58.9693 126.578 59.5273 126.722 60.1393 126.722C60.7513 126.722 61.3093 126.578 61.8133 126.29C62.3293 125.99 62.7373 125.564 63.0373 125.012C63.3373 124.448 63.4873 123.794 63.4873 123.05ZM71.9794 117.974C72.8314 117.974 73.5754 118.16 74.2114 118.532C74.8594 118.904 75.3394 119.372 75.6514 119.936V118.136H77.3074V128.216C77.3074 129.116 77.1154 129.914 76.7314 130.61C76.3474 131.318 75.7954 131.87 75.0754 132.266C74.3674 132.662 73.5394 132.86 72.5914 132.86C71.2954 132.86 70.2154 132.554 69.3514 131.942C68.4874 131.33 67.9774 130.496 67.8214 129.44H69.4414C69.6214 130.04 69.9934 130.52 70.5574 130.88C71.1214 131.252 71.7994 131.438 72.5914 131.438C73.4914 131.438 74.2234 131.156 74.7874 130.592C75.3634 130.028 75.6514 129.236 75.6514 128.216V126.146C75.3274 126.722 74.8474 127.202 74.2114 127.586C73.5754 127.97 72.8314 128.162 71.9794 128.162C71.1034 128.162 70.3054 127.946 69.5854 127.514C68.8774 127.082 68.3194 126.476 67.9114 125.696C67.5034 124.916 67.2994 124.028 67.2994 123.032C67.2994 122.024 67.5034 121.142 67.9114 120.386C68.3194 119.618 68.8774 119.024 69.5854 118.604C70.3054 118.184 71.1034 117.974 71.9794 117.974ZM75.6514 123.05C75.6514 122.306 75.5014 121.658 75.2014 121.106C74.9014 120.554 74.4934 120.134 73.9774 119.846C73.4734 119.546 72.9154 119.396 72.3034 119.396C71.6914 119.396 71.1334 119.54 70.6294 119.828C70.1254 120.116 69.7234 120.536 69.4234 121.088C69.1234 121.64 68.9734 122.288 68.9734 123.032C68.9734 123.788 69.1234 124.448 69.4234 125.012C69.7234 125.564 70.1254 125.99 70.6294 126.29C71.1334 126.578 71.6914 126.722 72.3034 126.722C72.9154 126.722 73.4734 126.578 73.9774 126.29C74.4934 125.99 74.9014 125.564 75.2014 125.012C75.5014 124.448 75.6514 123.794 75.6514 123.05ZM89.0755 122.69C89.0755 123.002 89.0575 123.332 89.0215 123.68H81.1375C81.1975 124.652 81.5275 125.414 82.1275 125.966C82.7395 126.506 83.4775 126.776 84.3415 126.776C85.0495 126.776 85.6375 126.614 86.1055 126.29C86.5855 125.954 86.9215 125.51 87.1135 124.958H88.8775C88.6135 125.906 88.0855 126.68 87.2935 127.28C86.5015 127.868 85.5175 128.162 84.3415 128.162C83.4055 128.162 82.5655 127.952 81.8215 127.532C81.0895 127.112 80.5135 126.518 80.0935 125.75C79.6735 124.97 79.4635 124.07 79.4635 123.05C79.4635 122.03 79.6675 121.136 80.0755 120.368C80.4835 119.6 81.0535 119.012 81.7855 118.604C82.5295 118.184 83.3815 117.974 84.3415 117.974C85.2775 117.974 86.1055 118.178 86.8255 118.586C87.5455 118.994 88.0975 119.558 88.4815 120.278C88.8775 120.986 89.0755 121.79 89.0755 122.69ZM87.3835 122.348C87.3835 121.724 87.2455 121.19 86.9695 120.746C86.6935 120.29 86.3155 119.948 85.8355 119.72C85.3675 119.48 84.8455 119.36 84.2695 119.36C83.4415 119.36 82.7335 119.624 82.1455 120.152C81.5695 120.68 81.2395 121.412 81.1555 122.348H87.3835ZM93.2356 119.486V125.3C93.2356 125.78 93.3376 126.122 93.5416 126.326C93.7456 126.518 94.0996 126.614 94.6036 126.614H95.8096V128H94.3336C93.4216 128 92.7376 127.79 92.2816 127.37C91.8256 126.95 91.5976 126.26 91.5976 125.3V119.486H90.3196V118.136H91.5976V115.652H93.2356V118.136H95.8096V119.486H93.2356ZM101.286 128.162C100.53 128.162 99.8522 128.036 99.2522 127.784C98.6522 127.52 98.1782 127.16 97.8302 126.704C97.4822 126.236 97.2902 125.702 97.2542 125.102H98.9462C98.9942 125.594 99.2222 125.996 99.6302 126.308C100.05 126.62 100.596 126.776 101.268 126.776C101.892 126.776 102.384 126.638 102.744 126.362C103.104 126.086 103.284 125.738 103.284 125.318C103.284 124.886 103.092 124.568 102.708 124.364C102.324 124.148 101.73 123.938 100.926 123.734C100.194 123.542 99.5942 123.35 99.1262 123.158C98.6702 122.954 98.2742 122.66 97.9382 122.276C97.6142 121.88 97.4522 121.364 97.4522 120.728C97.4522 120.224 97.6022 119.762 97.9022 119.342C98.2022 118.922 98.6282 118.592 99.1802 118.352C99.7322 118.1 100.362 117.974 101.07 117.974C102.162 117.974 103.044 118.25 103.716 118.802C104.388 119.354 104.748 120.11 104.796 121.07H103.158C103.122 120.554 102.912 120.14 102.528 119.828C102.156 119.516 101.652 119.36 101.016 119.36C100.428 119.36 99.9602 119.486 99.6122 119.738C99.2642 119.99 99.0902 120.32 99.0902 120.728C99.0902 121.052 99.1922 121.322 99.3962 121.538C99.6122 121.742 99.8762 121.91 100.188 122.042C100.512 122.162 100.956 122.3 101.52 122.456C102.228 122.648 102.804 122.84 103.248 123.032C103.692 123.212 104.07 123.488 104.382 123.86C104.706 124.232 104.874 124.718 104.886 125.318C104.886 125.858 104.736 126.344 104.436 126.776C104.136 127.208 103.71 127.55 103.158 127.802C102.618 128.042 101.994 128.162 101.286 128.162Z" fill="#0C0D36"/>
</svg>
