<svg width="76" height="76" viewBox="0 0 76 76" fill="none" xmlns="http://www.w3.org/2000/svg">
<circle cx="38" cy="38" r="38" fill="#E4E4E4"/>
<path d="M38.0138 57.4141C36.837 57.4141 35.8831 56.4601 35.8831 55.2833V20.7167C35.8831 19.5399 36.837 18.5859 38.0138 18.5859C39.1906 18.5859 40.1445 19.5399 40.1445 20.7167V55.2833C40.1445 56.4601 39.1906 57.4141 38.0138 57.4141Z" fill="#FF72C3"/>
<path d="M38.0136 18.5859C37.8082 18.5859 37.6099 18.6155 37.4219 18.6699C38.3105 18.9265 38.9609 19.7456 38.9609 20.7167V55.2833C38.9609 56.2547 38.3105 57.0735 37.4219 57.3301C37.6099 57.3845 37.8082 57.4141 38.0136 57.4141C39.1904 57.4141 40.1443 56.4601 40.1443 55.2833V20.7167C40.1443 19.5399 39.1904 18.5859 38.0136 18.5859V18.5859Z" fill="#FF50B5"/>
<path d="M35.8831 45.2604V55.2833C35.8831 56.4601 36.837 57.4141 38.0138 57.4141C39.1906 57.4141 40.1445 56.4601 40.1445 55.2833V45.2604H35.8831Z" fill="#DCE6EB"/>
<path d="M38.9609 55.2833C38.9609 56.2547 38.3105 57.0735 37.4219 57.3301C37.515 57.357 37.6108 57.3777 37.7084 57.3921C37.7118 57.3924 37.7151 57.3927 37.7182 57.3933C37.7597 57.3991 37.8012 57.4034 37.843 57.4067C37.8537 57.4077 37.8644 57.4086 37.8751 57.4092C37.9208 57.4122 37.9669 57.4141 38.0136 57.4141C39.1904 57.4141 40.1443 56.4601 40.1443 55.2833V45.2604H38.9606V55.2833H38.9609Z" fill="#C8D2DC"/>
<path d="M35.8831 45.2604H40.1448V47.628H35.8831V45.2604Z" fill="#828282"/>
<path d="M38.9609 45.2604H40.1444V47.628H38.9609V45.2604Z" fill="#5A5A5A"/>
<path d="M45.5111 57.4141C44.3344 57.4141 43.3804 56.4601 43.3804 55.2833V23.8734C43.3804 22.6967 44.3344 21.7427 45.5111 21.7427C46.6879 21.7427 47.6418 22.6967 47.6418 23.8734V55.2833C47.6422 56.4601 46.6882 57.4141 45.5111 57.4141Z" fill="#72D1FB"/>
<path d="M45.5109 21.7427C45.3055 21.7427 45.1072 21.7723 44.9192 21.8266C45.8079 22.0833 46.4582 22.9023 46.4582 23.8737V55.2833C46.4582 56.2547 45.8079 57.0738 44.9192 57.3301C45.1072 57.3845 45.3055 57.4141 45.5109 57.4141C46.6877 57.4141 47.6417 56.4601 47.6417 55.2833V23.8734C47.642 22.6967 46.688 21.7427 45.5109 21.7427V21.7427Z" fill="#40C1FA"/>
<path d="M43.3804 46.8388V55.2833C43.3804 56.4601 44.3344 57.4141 45.5111 57.4141C46.6879 57.4141 47.6418 56.4601 47.6418 55.2833V46.8388H43.3804Z" fill="#DCE6EB"/>
<path d="M46.4582 55.2833C46.4582 56.2547 45.8079 57.0735 44.9192 57.3301C45.0123 57.357 45.1081 57.3777 45.2057 57.3921C45.2091 57.3924 45.2125 57.3927 45.2155 57.3933C45.257 57.3991 45.2985 57.4034 45.3406 57.4067C45.351 57.4077 45.3617 57.4086 45.3724 57.4092C45.4182 57.4122 45.4642 57.4141 45.5109 57.4141C46.6877 57.4141 47.6417 56.4601 47.6417 55.2833V46.8388H46.4579V55.2833H46.4582Z" fill="#C8D2DC"/>
<path d="M43.3804 46.8388H47.6422V49.2064H43.3804V46.8388Z" fill="#828282"/>
<path d="M46.4583 46.8388H47.6417V49.2064H46.4583V46.8388Z" fill="#5A5A5A"/>
<path d="M30.5165 57.4141C29.3397 57.4141 28.3857 56.4601 28.3857 55.2833V23.8734C28.3857 22.6967 29.3397 21.7427 30.5165 21.7427C31.6932 21.7427 32.6472 22.6967 32.6472 23.8734V55.2833C32.6472 56.4601 31.6932 57.4141 30.5165 57.4141Z" fill="#82CD64"/>
<path d="M30.5165 21.7427C30.3112 21.7427 30.1128 21.7723 29.9248 21.8266C30.8135 22.0833 31.4638 22.9023 31.4638 23.8737V55.2833C31.4638 56.2547 30.8135 57.0738 29.9248 57.3301C30.1128 57.3845 30.3112 57.4141 30.5165 57.4141C31.6933 57.4141 32.6473 56.4601 32.6473 55.2833V23.8734C32.6473 22.6967 31.6933 21.7427 30.5165 21.7427V21.7427Z" fill="#5DB33A"/>
<path d="M28.3857 46.8388V55.2833C28.3857 56.4601 29.3397 57.4141 30.5165 57.4141C31.6932 57.4141 32.6472 56.4601 32.6472 55.2833V46.8388H28.3857Z" fill="#DCE6EB"/>
<path d="M31.4638 55.2833C31.4638 56.2547 30.8135 57.0735 29.9248 57.3301C30.0179 57.357 30.1137 57.3777 30.2114 57.3921C30.2147 57.3924 30.2181 57.3927 30.2211 57.3933C30.2626 57.3991 30.3041 57.4034 30.3459 57.4067C30.3566 57.4077 30.3673 57.4086 30.378 57.4092C30.4238 57.4122 30.4698 57.4141 30.5165 57.4141C31.6933 57.4141 32.6473 56.4601 32.6473 55.2833V46.8388H31.4635V55.2833H31.4638Z" fill="#C8D2DC"/>
<path d="M28.3857 46.8388H32.6472V49.2064H28.3857V46.8388Z" fill="#828282"/>
<path d="M31.4639 46.8388H32.6473V49.2064H31.4639V46.8388Z" fill="#5A5A5A"/>
<path d="M38.0138 18C36.516 18 35.2971 19.2189 35.2971 20.7167V55.2833C35.2971 56.7811 36.516 58 38.0138 58C39.5119 58 40.7305 56.7811 40.7305 55.2833V29.9922C40.7305 29.6687 40.4683 29.4062 40.1445 29.4062C39.821 29.4062 39.5586 29.6687 39.5586 29.9922V44.6745H36.469V20.7167C36.469 19.8649 37.162 19.1719 38.0138 19.1719C38.8655 19.1719 39.5586 19.8649 39.5586 20.7167V27.2642C39.5586 27.588 39.821 27.8502 40.1445 27.8502C40.4683 27.8502 40.7305 27.588 40.7305 27.2642V20.7167C40.7305 19.2189 39.5119 18 38.0138 18ZM38.0138 56.8281C37.162 56.8281 36.469 56.1351 36.469 55.2833V48.2139H39.5589V55.2833C39.5586 56.1351 38.8655 56.8281 38.0138 56.8281V56.8281ZM39.5586 45.8464V47.0421H36.469V45.8464H39.5586Z" fill="black"/>
<path d="M45.5114 21.1567C44.0133 21.1567 42.7944 22.3756 42.7944 23.8734V55.2833C42.7944 56.7814 44.0133 58 45.5114 58C47.0092 58 48.2281 56.761 48.2281 55.2375V29.9922C48.2281 29.6687 47.9656 29.4062 47.6422 29.4062C47.3184 29.4062 47.0562 29.6687 47.0562 29.9922V46.2529H43.9663V23.8734C43.9663 23.0217 44.6594 22.3286 45.5111 22.3286C46.3632 22.3286 47.0559 23.0217 47.0559 23.8734V27.2548C47.0559 27.5782 47.3184 27.8407 47.6418 27.8407C47.9656 27.8407 48.2278 27.5782 48.2278 27.2548V23.8734C48.2281 22.3756 47.0092 21.1567 45.5114 21.1567V21.1567ZM45.5114 56.8281C44.6594 56.8281 43.9663 56.1351 43.9663 55.2833V49.7923H47.0562V55.2375C47.0562 56.1296 46.3775 56.8281 45.5114 56.8281ZM47.0562 47.4247V48.6204H43.9663V47.4247H47.0562Z" fill="black"/>
<path d="M30.5165 21.1567C29.0184 21.1567 27.7998 22.3756 27.7998 23.8734V28.036C27.7998 28.3595 28.062 28.6219 28.3857 28.6219C28.7092 28.6219 28.9717 28.3595 28.9717 28.036V23.8734C28.9717 23.0217 29.6647 22.3286 30.5165 22.3286C31.3682 22.3286 32.0613 23.0217 32.0613 23.8734V46.2532H28.9717V30.7734C28.9717 30.45 28.7092 30.1875 28.3857 30.1875C28.062 30.1875 27.7998 30.45 27.7998 30.7734V55.2833C27.7998 56.7814 29.0184 58 30.5165 58C32.0146 58 33.2332 56.7811 33.2332 55.2833V23.8734C33.2332 22.3756 32.0146 21.1567 30.5165 21.1567ZM32.0613 47.4247V48.6204H28.9717V47.4247H32.0613ZM30.5165 56.8281C29.6647 56.8281 28.9717 56.1351 28.9717 55.2833V49.7923H32.0613V55.2833C32.0613 56.1351 31.3682 56.8281 30.5165 56.8281V56.8281Z" fill="black"/>
<path d="M50.6604 20.1841C50.8893 19.9553 50.8893 19.5842 50.6604 19.3556C50.4316 19.1267 50.0608 19.1267 49.8319 19.3556L48.7269 20.4603C48.4983 20.6892 48.4983 21.0603 48.7269 21.2889C48.8413 21.4033 48.9914 21.4607 49.1413 21.4607C49.2911 21.4607 49.4413 21.4033 49.5557 21.2889L50.6604 20.1841Z" fill="black"/>
<path d="M47.7998 18.3946C47.476 18.3946 47.2139 18.657 47.2139 18.9805V20.0853C47.2139 20.4091 47.476 20.6712 47.7998 20.6712C48.1233 20.6712 48.3857 20.4091 48.3857 20.0853V18.9805C48.3857 18.657 48.1233 18.3946 47.7998 18.3946V18.3946Z" fill="black"/>
<path d="M51.0356 21.6304H49.8518C49.528 21.6304 49.2659 21.8925 49.2659 22.2163C49.2659 22.5398 49.528 22.8022 49.8518 22.8022H51.0356C51.3591 22.8022 51.6215 22.5398 51.6215 22.2163C51.6215 21.8925 51.3591 21.6304 51.0356 21.6304V21.6304Z" fill="black"/>
<path d="M26.1958 19.3553C25.9669 19.1267 25.5958 19.1267 25.3672 19.3553C25.1383 19.5842 25.1383 19.9552 25.3672 20.1838L26.472 21.2889C26.5864 21.4033 26.7365 21.4607 26.8864 21.4607C27.0362 21.4607 27.1864 21.4033 27.3008 21.2889C27.5297 21.06 27.5297 20.6892 27.3008 20.4603L26.1958 19.3553Z" fill="black"/>
<path d="M28.228 20.6712C28.5515 20.6712 28.814 20.4091 28.814 20.0853V18.9805C28.814 18.657 28.5515 18.3946 28.228 18.3946C27.9042 18.3946 27.6421 18.657 27.6421 18.9805V20.0853C27.6421 20.4091 27.9042 20.6712 28.228 20.6712Z" fill="black"/>
<path d="M26.176 21.6304H24.9922C24.6684 21.6304 24.4062 21.8925 24.4062 22.2163C24.4062 22.5398 24.6684 22.8022 24.9922 22.8022H26.176C26.4998 22.8022 26.7619 22.5398 26.7619 22.2163C26.7619 21.8925 26.4998 21.6304 26.176 21.6304Z" fill="black"/>
</svg>
