<svg height="512pt" viewBox="-82 0 512 512" width="512pt" xmlns="http://www.w3.org/2000/svg"><path d="m174.175781 504.5c-15.0625 0-27.273437-12.210938-27.273437-27.273438v-442.453124c0-15.0625 12.210937-27.273438 27.273437-27.273438s27.273438 12.210938 27.273438 27.273438v442.453124c0 15.0625-12.210938 27.273438-27.273438 27.273438zm0 0" fill="#ff72c3"/><path d="m174.175781 7.5c-2.628906 0-5.167969.378906-7.574219 1.074219 11.375 3.285156 19.699219 13.769531 19.699219 26.199219v442.453124c0 12.433594-8.324219 22.914063-19.699219 26.199219 2.40625.695313 4.945313 1.074219 7.574219 1.074219 15.0625 0 27.273438-12.210938 27.273438-27.273438v-442.453124c0-15.0625-12.210938-27.273438-27.273438-27.273438zm0 0" fill="#ff50b5"/><path d="m146.902344 348.933594v128.292968c0 15.0625 12.210937 27.273438 27.273437 27.273438s27.273438-12.210938 27.273438-27.273438v-128.292968zm0 0" fill="#dce6eb"/><path d="m186.300781 477.226562c0 12.433594-8.324219 22.914063-19.699219 26.199219 1.191407.34375 2.417969.609375 3.667969.792969.042969.003906.085938.007812.125.015625.53125.074219 1.0625.128906 1.597657.171875.136718.011719.273437.023438.410156.03125.585937.039062 1.175781.0625 1.773437.0625 15.0625 0 27.273438-12.210938 27.273438-27.273438v-128.292968h-15.152344v128.292968zm0 0" fill="#c8d2dc"/><path d="m146.902344 348.933594h54.550781v30.304687h-54.550781zm0 0" fill="#828282"/><path d="m186.300781 348.933594h15.148438v30.304687h-15.148438zm0 0" fill="#5a5a5a"/><path d="m270.140625 504.5c-15.0625 0-27.273437-12.210938-27.273437-27.273438v-402.046874c0-15.0625 12.210937-27.273438 27.273437-27.273438s27.273437 12.210938 27.273437 27.273438v402.046874c.003907 15.0625-12.207031 27.273438-27.273437 27.273438zm0 0" fill="#72d1fb"/><path d="m270.140625 47.90625c-2.628906 0-5.167969.378906-7.574219 1.074219 11.375 3.285156 19.699219 13.769531 19.699219 26.203125v402.042968c0 12.433594-8.324219 22.917969-19.699219 26.199219 2.40625.695313 4.945313 1.074219 7.574219 1.074219 15.0625 0 27.273437-12.210938 27.273437-27.273438v-402.046874c.003907-15.0625-12.207031-27.273438-27.273437-27.273438zm0 0" fill="#40c1fa"/><path d="m242.867188 369.136719v108.089843c0 15.0625 12.210937 27.273438 27.273437 27.273438s27.273437-12.210938 27.273437-27.273438v-108.089843zm0 0" fill="#dce6eb"/><path d="m282.265625 477.226562c0 12.433594-8.324219 22.914063-19.699219 26.199219 1.191406.34375 2.417969.609375 3.667969.792969.042969.003906.085937.007812.125.015625.53125.074219 1.0625.128906 1.601563.171875.132812.011719.269531.023438.40625.03125.585937.039062 1.175781.0625 1.773437.0625 15.0625 0 27.273437-12.210938 27.273437-27.273438v-108.089843h-15.152343v108.089843zm0 0" fill="#c8d2dc"/><path d="m242.867188 369.136719h54.550781v30.304687h-54.550781zm0 0" fill="#828282"/><path d="m282.265625 369.136719h15.148437v30.304687h-15.148437zm0 0" fill="#5a5a5a"/><path d="m78.210938 504.5c-15.0625 0-27.273438-12.210938-27.273438-27.273438v-402.046874c0-15.0625 12.210938-27.273438 27.273438-27.273438s27.273437 12.210938 27.273437 27.273438v402.046874c0 15.0625-12.210937 27.273438-27.273437 27.273438zm0 0" fill="#82cd64"/><path d="m78.210938 47.90625c-2.628907 0-5.167969.378906-7.574219 1.074219 11.375 3.285156 19.699219 13.769531 19.699219 26.203125v402.042968c0 12.433594-8.324219 22.917969-19.699219 26.199219 2.40625.695313 4.945312 1.074219 7.574219 1.074219 15.0625 0 27.273437-12.210938 27.273437-27.273438v-402.046874c0-15.0625-12.210937-27.273438-27.273437-27.273438zm0 0" fill="#5db33a"/><path d="m50.9375 369.136719v108.089843c0 15.0625 12.210938 27.273438 27.273438 27.273438s27.273437-12.210938 27.273437-27.273438v-108.089843zm0 0" fill="#dce6eb"/><path d="m90.335938 477.226562c0 12.433594-8.324219 22.914063-19.699219 26.199219 1.191406.34375 2.417969.609375 3.667969.792969.042968.003906.085937.007812.125.015625.53125.074219 1.0625.128906 1.597656.171875.136718.011719.273437.023438.410156.03125.585938.039062 1.175781.0625 1.773438.0625 15.0625 0 27.273437-12.210938 27.273437-27.273438v-108.089843h-15.152344v108.089843zm0 0" fill="#c8d2dc"/><path d="m50.9375 369.136719h54.546875v30.304687h-54.546875zm0 0" fill="#828282"/><path d="m90.335938 369.136719h15.148437v30.304687h-15.148437zm0 0" fill="#5a5a5a"/><path d="m174.175781 0c-19.171875 0-34.773437 15.601562-34.773437 34.773438v442.453124c0 19.171876 15.601562 34.773438 34.773437 34.773438 19.175781 0 34.773438-15.601562 34.773438-34.773438v-323.726562c0-4.140625-3.355469-7.5-7.5-7.5-4.140625 0-7.5 3.359375-7.5 7.5v187.933594h-39.546875v-306.660156c0-10.902344 8.871094-19.773438 19.773437-19.773438 10.902344 0 19.773438 8.871094 19.773438 19.773438v83.808593c0 4.144531 3.359375 7.5 7.5 7.5 4.144531 0 7.5-3.355469 7.5-7.5v-83.808593c0-19.171876-15.597657-34.773438-34.773438-34.773438zm0 497c-10.902343 0-19.773437-8.871094-19.773437-19.773438v-90.488281h39.550781v90.488281c-.003906 10.902344-8.875 19.773438-19.777344 19.773438zm19.773438-140.566406v15.304687h-39.546875v-15.304687zm0 0"/><path d="m270.144531 40.40625c-19.175781 0-34.777343 15.601562-34.777343 34.773438v402.046874c0 19.175782 15.601562 34.773438 34.777343 34.773438 19.171875 0 34.773438-15.859375 34.773438-35.359375v-323.140625c0-4.140625-3.359375-7.5-7.5-7.5-4.144531 0-7.5 3.359375-7.5 7.5v208.136719h-39.550781v-286.457031c0-10.902344 8.871093-19.773438 19.773437-19.773438 10.90625 0 19.773437 8.871094 19.773437 19.773438v43.28125c0 4.140624 3.359376 7.5 7.5 7.5 4.144532 0 7.5-3.359376 7.5-7.5v-43.28125c.003907-19.171876-15.597656-34.773438-34.769531-34.773438zm0 456.59375c-10.90625 0-19.777343-8.871094-19.777343-19.773438v-70.285156h39.550781v69.699219c0 11.417969-8.6875 20.359375-19.773438 20.359375zm19.773438-120.363281v15.304687h-39.550781v-15.304687zm0 0"/><path d="m78.210938 40.40625c-19.175782 0-34.773438 15.601562-34.773438 34.773438v53.28125c0 4.140624 3.355469 7.5 7.5 7.5 4.140625 0 7.5-3.359376 7.5-7.5v-53.28125c0-10.902344 8.871094-19.773438 19.773438-19.773438 10.902343 0 19.773437 8.871094 19.773437 19.773438v286.460937h-39.546875v-198.140625c0-4.140625-3.359375-7.5-7.5-7.5-4.144531 0-7.5 3.359375-7.5 7.5v313.726562c0 19.175782 15.597656 34.773438 34.773438 34.773438 19.175781 0 34.773437-15.601562 34.773437-34.773438v-402.046874c0-19.171876-15.597656-34.773438-34.773437-34.773438zm19.773437 336.230469v15.304687h-39.546875v-15.304687zm-19.773437 120.363281c-10.902344 0-19.773438-8.871094-19.773438-19.773438v-70.285156h39.546875v70.285156c0 10.902344-8.871094 19.773438-19.773437 19.773438zm0 0"/><path d="m336.054688 27.957031c2.929687-2.929687 2.929687-7.679687 0-10.605469-2.929688-2.929687-7.675782-2.929687-10.605469 0l-14.144531 14.140626c-2.925782 2.929687-2.925782 7.679687 0 10.605468 1.464843 1.464844 3.386718 2.199219 5.304687 2.199219s3.839844-.734375 5.304687-2.199219zm0 0"/><path d="m299.4375 5.050781c-4.144531 0-7.5 3.359375-7.5 7.5v14.140625c0 4.144532 3.355469 7.5 7.5 7.5 4.140625 0 7.5-3.355468 7.5-7.5v-14.140625c0-4.140625-3.359375-7.5-7.5-7.5zm0 0"/><path d="m340.855469 46.46875h-15.152344c-4.144531 0-7.5 3.355469-7.5 7.5 0 4.140625 3.355469 7.5 7.5 7.5h15.152344c4.140625 0 7.5-3.359375 7.5-7.5 0-4.144531-3.359375-7.5-7.5-7.5zm0 0"/><path d="m22.90625 17.347656c-2.929688-2.925781-7.679688-2.925781-10.605469 0-2.929687 2.929688-2.929687 7.679688 0 10.605469l14.140625 14.144531c1.464844 1.464844 3.386719 2.199219 5.304688 2.199219 1.917968 0 3.839844-.734375 5.304687-2.199219 2.929688-2.929687 2.929688-7.675781 0-10.605468zm0 0"/><path d="m48.917969 34.191406c4.140625 0 7.5-3.355468 7.5-7.5v-14.140625c0-4.140625-3.359375-7.5-7.5-7.5-4.144531 0-7.5 3.359375-7.5 7.5v14.140625c0 4.144532 3.355469 7.5 7.5 7.5zm0 0"/><path d="m22.652344 46.46875h-15.152344c-4.144531 0-7.5 3.355469-7.5 7.5 0 4.140625 3.355469 7.5 7.5 7.5h15.152344c4.144531 0 7.5-3.359375 7.5-7.5 0-4.144531-3.355469-7.5-7.5-7.5zm0 0"/></svg>