<?xml version="1.0"?>
<svg xmlns="http://www.w3.org/2000/svg" viewBox="0 0 512 512" width="512" height="512"><g id="Filled_outline" data-name="Filled outline"><path d="M132.925,37.736l-81.4,363.6A16,16,0,0,0,63.8,420.482L380.177,488,472,94.891,153.878,24.416a17.609,17.609,0,0,0-3.8-.416h0A17.576,17.576,0,0,0,132.925,37.736Z" style="fill:#a8deea"/><path d="M104,72H424a0,0,0,0,1,0,0V488a0,0,0,0,1,0,0H104a16,16,0,0,1-16-16V88A16,16,0,0,1,104,72Z" style="fill:#559adb"/><path d="M424,72V288L370.55,428.31c-.01.03-.02.05-.03.08A42.994,42.994,0,0,1,330.37,456H104a16,16,0,0,0-16,16V88a16,16,0,0,1,16-16Z" style="fill:#d3669a"/><path d="M104,456H424a0,0,0,0,1,0,0v32a0,0,0,0,1,0,0H104a16,16,0,0,1-16-16v0A16,16,0,0,1,104,456Z" style="fill:#348fd9"/><path d="M267.777,384h8.446a83.776,83.776,0,0,0,74.932-46.311h0A83.769,83.769,0,0,0,360,300.223V200H184V300.223a83.769,83.769,0,0,0,8.845,37.466h0A83.776,83.776,0,0,0,267.777,384Z" style="fill:#faa50f"/><path d="M387.26,384l-17.55,46.34A42.971,42.971,0,0,1,330.37,456H136l6.37-52.59A48.012,48.012,0,0,1,188.69,368H240V304h64v64h48C376,368,387.26,384,387.26,384Z" style="fill:#fec9a3"/><path d="M304,304v32.51a72.1,72.1,0,0,1-64,0V304Z" style="fill:#fec093"/><path d="M272,328h0a72,72,0,0,0,72-72V200a64,64,0,0,0-64-64H264a64,64,0,0,0-64,64v56A72,72,0,0,0,272,328Z" style="fill:#fec9a3"/><path d="M176,200h0a24,24,0,0,1,24,24v0a24,24,0,0,1-24,24h0a0,0,0,0,1,0,0V200A0,0,0,0,1,176,200Z" transform="translate(375.996 448.003) rotate(-179.999)" style="fill:#feb784"/><path d="M280,112H264a80,80,0,0,0-80,80v8h16l40-56,72.232,43.339A16,16,0,0,1,320,201.059V368h0a40,40,0,0,0,40-40V192A80,80,0,0,0,280,112Z" style="fill:#faa50f"/><path d="M424,288,370.55,428.31c-.01.03-.02.05-.03.08q-.375.99-.81,1.95A42.971,42.971,0,0,1,330.37,456H328a31.994,31.994,0,0,0,23.91-53.26c-.41-.47-.84-.93-1.28-1.37A31.89,31.89,0,0,0,328,392H312l25.85-24Z" style="fill:#d75246"/><path d="M478.771,90.629a8,8,0,0,0-5.042-3.549L432,77.838V72a8,8,0,0,0-8-8H369.545L155.627,16.613a25.585,25.585,0,0,0-30.514,19.38l-2.3,10.259,15.614,3.5,2.3-10.259A9.471,9.471,0,0,1,144.1,34.1a9.566,9.566,0,0,1,8.054-1.871L295.566,64H104A24.028,24.028,0,0,0,80,88v64H96V88a8.009,8.009,0,0,1,8-8H416V284.512L306.557,386.138a7.959,7.959,0,0,0,.582,12.19l-12.271,1.753,2.264,15.838,49.468-7.065A23.984,23.984,0,0,1,328,448H145.028l5.211-43.023A40.1,40.1,0,0,1,188.69,376H240a8,8,0,0,0,8-8V332.339a80.5,80.5,0,0,0,48,0V368h16V352h16V201.059a24.124,24.124,0,0,0-11.652-20.58L244.116,137.14a8,8,0,0,0-10.626,2.21L195.883,192H192c0-4.553,3.328-26.922,13.5-40,38.411-49.385,128.455-41.727,144.542,23.893A67.728,67.728,0,0,1,352,192V312h16V192a87.482,87.482,0,0,0-8-36.64V96H344v35.667a88.671,88.671,0,0,0-16-13.387V96H312v14.024a87.248,87.248,0,0,0-16-4.562V96H280v8H264V96H248v9.462a87.248,87.248,0,0,0-16,4.562V96H216v22.28a88.671,88.671,0,0,0-16,13.387V96H184v59.36A87.482,87.482,0,0,0,176,192v4.305a31.969,31.969,0,0,0,0,55.39V300.22A91.517,91.517,0,0,0,198.159,360H188.69a56.13,56.13,0,0,0-54.039,41.309,8.027,8.027,0,0,0-.222,1.138L128.91,448H104a23.889,23.889,0,0,0-8,1.376V168H80V415.754l-14.527-3.1a8,8,0,0,1-6.136-9.57l16.416-73.339-15.613-3.5L43.723,399.6A24,24,0,0,0,62.132,428.3L80,432.114V472a24.028,24.028,0,0,0,24,24H424a8,8,0,0,0,8-8V408H416v40H367.389a50.579,50.579,0,0,0,10.636-16.844L416,331.472V392h16V301.311l47.79-204.6A8,8,0,0,0,478.771,90.629ZM242.217,154.66l65.9,39.539a8.04,8.04,0,0,1,3.885,6.86V216.7a12,12,0,1,0,0,22.6v66.648A63.984,63.984,0,0,1,208,256V202.563ZM192,208v32a16,16,0,0,1,0-32Zm8,126.115a76.253,76.253,0,0,1-8-33.895V256a79.516,79.516,0,0,0,40,69.286V360H221.216A76.113,76.113,0,0,1,200,334.115ZM416,480H104a8,8,0,0,1,0-16H416Zm-48.991-64.87a40.1,40.1,0,0,0-34.866-30.917l72.175-67.02ZM432,230.969V94.225l30.369,6.726Z"/><rect x="112" y="96" width="16" height="336"/><rect x="152" y="96" width="16" height="64"/><rect x="376" y="96" width="16" height="64"/><path d="M236,240a12,12,0,1,0-12-12A12.013,12.013,0,0,0,236,240Z"/><path d="M272,288a24.027,24.027,0,0,0,24-24H280a8,8,0,0,1-16,0H248A24.027,24.027,0,0,0,272,288Z"/><rect x="208" y="371.751" width="16" height="64.498" transform="translate(-211.672 568.222) rotate(-82.875)"/></g></svg>
