<svg width="76" height="76" viewBox="0 0 76 76" fill="none" xmlns="http://www.w3.org/2000/svg">
<circle cx="38" cy="38" r="38" fill="#E4E4E4"/>
<path d="M28.3847 20.9481L22.0254 49.3544C21.9892 49.5156 21.9854 49.6824 22.0142 49.8451C22.0429 50.0078 22.1036 50.1632 22.1928 50.3023C22.282 50.4414 22.3979 50.5615 22.5337 50.6555C22.6696 50.7495 22.8227 50.8157 22.9843 50.8502L47.7013 56.125L54.875 25.4134L30.0217 19.9075C29.9242 19.8859 29.8247 19.875 29.7248 19.875V19.875C29.4127 19.875 29.11 19.9812 28.8664 20.1763C28.6228 20.3714 28.4529 20.6436 28.3847 20.9481V20.9481Z" fill="#A8DEEA"/>
<path d="M26.125 23.625H51.125V56.125H26.125C25.7935 56.125 25.4755 55.9933 25.2411 55.7589C25.0067 55.5245 24.875 55.2065 24.875 54.875V24.875C24.875 24.5435 25.0067 24.2255 25.2411 23.9911C25.4755 23.7567 25.7935 23.625 26.125 23.625V23.625Z" fill="#559ADB"/>
<path d="M51.125 23.625V40.5L46.9492 51.4617C46.9484 51.4641 46.9477 51.4656 46.9469 51.468C46.7037 52.1027 46.2736 52.6486 45.7136 53.0338C45.1535 53.4189 44.4898 53.625 43.8102 53.625H26.125C25.7935 53.625 25.4755 53.7567 25.2411 53.9911C25.0067 54.2255 24.875 54.5435 24.875 54.875V24.875C24.875 24.5435 25.0067 24.2255 25.2411 23.9911C25.4755 23.7567 25.7935 23.625 26.125 23.625H51.125Z" fill="#D3669A"/>
<path d="M26.125 53.625H51.125V56.125H26.125C25.7935 56.125 25.4755 55.9933 25.2411 55.7589C25.0067 55.5245 24.875 55.2065 24.875 54.875C24.875 54.5435 25.0067 54.2255 25.2411 53.9911C25.4755 53.7567 25.7935 53.625 26.125 53.625Z" fill="#348FD9"/>
<path d="M38.9201 48H39.5799C40.7954 48 41.9869 47.6615 43.0209 47.0225C44.0548 46.3835 44.8904 45.4691 45.434 44.382V44.382C45.8884 43.4731 46.125 42.471 46.125 41.4549V33.625H32.375V41.4549C32.375 42.471 32.6116 43.4731 33.066 44.382V44.382C33.6096 45.4691 34.4452 46.3835 35.4791 47.0225C36.5131 47.6615 37.7046 48 38.9201 48V48Z" fill="#FAA50F"/>
<path d="M48.2547 48L46.8836 51.6203C46.6211 52.2167 46.1907 52.7238 45.645 53.0797C45.0993 53.4357 44.4617 53.6252 43.8102 53.625H28.625L29.1227 49.5164C29.3387 48.7221 29.8101 48.0209 30.464 47.521C31.118 47.0211 31.9182 46.7501 32.7414 46.75H36.75V41.75H41.75V46.75H45.5C47.375 46.75 48.2547 48 48.2547 48Z" fill="#FEC9A3"/>
<path d="M41.75 41.75V44.2898C40.9728 44.6748 40.1173 44.875 39.25 44.875C38.3827 44.875 37.5272 44.6748 36.75 44.2898V41.75H41.75Z" fill="#FEC093"/>
<path d="M39.25 43.625C40.7418 43.625 42.1726 43.0324 43.2275 41.9775C44.2824 40.9226 44.875 39.4918 44.875 38V33.625C44.875 32.2989 44.3482 31.0271 43.4105 30.0895C42.4729 29.1518 41.2011 28.625 39.875 28.625H38.625C37.2989 28.625 36.0271 29.1518 35.0895 30.0895C34.1518 31.0271 33.625 32.2989 33.625 33.625V38C33.625 39.4918 34.2176 40.9226 35.2725 41.9775C36.3274 43.0324 37.7582 43.625 39.25 43.625Z" fill="#FEC9A3"/>
<path d="M33.625 37.375C33.1277 37.375 32.6508 37.1774 32.2992 36.8258C31.9476 36.4741 31.75 35.9972 31.75 35.4999V35.4999C31.75 35.0027 31.9476 34.5257 32.2992 34.1741C32.6509 33.8225 33.1278 33.625 33.6251 33.625V33.625L33.625 37.375Z" fill="#FEB784"/>
<path d="M39.875 26.75H38.625C36.9674 26.75 35.3777 27.4085 34.2056 28.5806C33.0335 29.7527 32.375 31.3424 32.375 33V33.625H33.625L36.75 29.25L42.3931 32.6359C42.5782 32.7469 42.7314 32.904 42.8378 33.0919C42.9441 33.2797 43 33.4919 43 33.7077V46.75C43.8288 46.75 44.6237 46.4208 45.2097 45.8347C45.7958 45.2487 46.125 44.4538 46.125 43.625V33C46.125 31.3424 45.4665 29.7527 44.2944 28.5806C43.1223 27.4085 41.5326 26.75 39.875 26.75V26.75Z" fill="#FAA50F"/>
<path d="M51.125 40.5L46.9492 51.4617C46.9484 51.4641 46.9477 51.4656 46.9469 51.468C46.9273 51.5195 46.9062 51.5703 46.8836 51.6203C46.6211 52.2167 46.1907 52.7238 45.645 53.0797C45.0993 53.4357 44.4617 53.6252 43.8102 53.625H43.625C44.107 53.6251 44.5787 53.4858 44.9834 53.224C45.3881 52.9621 45.7084 52.5889 45.9058 52.1492C46.1032 51.7094 46.1693 51.222 46.096 50.7456C46.0228 50.2692 45.8133 49.8242 45.493 49.4641C45.4609 49.4273 45.4273 49.3914 45.393 49.357C45.1611 49.1245 44.8855 48.9401 44.5821 48.8145C44.2787 48.6889 43.9534 48.6245 43.625 48.625H42.375L44.3945 46.75L51.125 40.5Z" fill="#D75246"/>
<path d="M55.404 25.0804C55.36 25.0104 55.3025 24.9499 55.2349 24.9023C55.1672 24.8547 55.0909 24.821 55.0101 24.8031L51.75 24.0811V23.625C51.75 23.4592 51.6842 23.3003 51.567 23.183C51.4498 23.0658 51.2908 23 51.125 23H46.8707L30.1584 19.2979C29.6415 19.1831 29.1002 19.278 28.6533 19.5619C28.2064 19.8457 27.8903 20.2953 27.7745 20.8119L27.5948 21.6134L28.8147 21.8869L28.9943 21.0854C29.031 20.9188 29.1241 20.7699 29.2579 20.6641C29.3451 20.5942 29.447 20.5448 29.5559 20.5195C29.6648 20.4942 29.7779 20.4936 29.8871 20.5179L41.0911 23H26.125C25.6279 23.0006 25.1514 23.1983 24.7999 23.5498C24.4484 23.9013 24.2506 24.3779 24.25 24.875V29.875H25.5V24.875C25.5002 24.7093 25.5661 24.5504 25.6833 24.4333C25.8005 24.3161 25.9593 24.2502 26.125 24.25H50.5V40.2275L41.9498 48.167C41.883 48.2286 41.8305 48.3042 41.796 48.3883C41.7615 48.4724 41.7459 48.563 41.7502 48.6538C41.7546 48.7446 41.7787 48.8333 41.8211 48.9138C41.8634 48.9942 41.9229 49.0644 41.9953 49.1194L41.0366 49.2563L41.2135 50.4937L45.0782 49.9417C45.3023 50.2165 45.4439 50.5492 45.4865 50.9012C45.5291 51.2532 45.4709 51.6101 45.3188 51.9304C45.1666 52.2507 44.9266 52.5212 44.6268 52.7105C44.327 52.8999 43.9796 53.0002 43.625 53H29.3304L29.7375 49.6388C29.9256 48.9871 30.3202 48.4141 30.8619 48.0059C31.4036 47.5977 32.0632 47.3763 32.7415 47.375H36.75C36.9158 47.375 37.0748 47.3091 37.192 47.1919C37.3092 47.0747 37.375 46.9157 37.375 46.75V43.964C38.596 44.3453 39.9041 44.3453 41.125 43.964V46.75H42.375V45.5H43.625V33.7077C43.6241 33.3841 43.5399 33.0662 43.3804 32.7846C43.221 32.503 42.9917 32.2672 42.7147 32.0999L37.0716 28.7141C36.9369 28.6332 36.7766 28.6061 36.6228 28.6381C36.4689 28.6701 36.3328 28.7588 36.2415 28.8867L33.3034 33H33C33 32.6443 33.26 30.8967 34.0547 29.875C37.0556 26.0168 44.0903 26.6151 45.3471 31.7416C45.4483 32.1534 45.4997 32.5759 45.5 33V42.375H46.75V33C46.7511 32.0119 46.5379 31.0353 46.125 30.1375V25.5H44.875V28.2865C44.501 27.8899 44.0814 27.5388 43.625 27.2406V25.5H42.375V26.5956C41.9707 26.4373 41.5521 26.3179 41.125 26.2392V25.5H39.875V26.125H38.625V25.5H37.375V26.2392C36.948 26.3179 36.5294 26.4373 36.125 26.5956V25.5H34.875V27.2406C34.4187 27.5388 33.9991 27.8899 33.625 28.2865V25.5H32.375V30.1375C31.9622 31.0353 31.749 32.0119 31.75 33V33.3363C31.37 33.5554 31.0544 33.8708 30.835 34.2506C30.6156 34.6304 30.5 35.0613 30.5 35.5C30.5 35.9386 30.6156 36.3696 30.835 36.7494C31.0544 37.1292 31.37 37.4445 31.75 37.6637V41.4547C31.7487 43.1686 32.363 44.826 33.4812 46.125H32.7415C31.7815 46.1267 30.8487 46.4433 30.086 47.0263C29.3234 47.6093 28.7731 48.4264 28.5197 49.3523C28.5117 49.3814 28.5059 49.4111 28.5023 49.4412L28.0711 53H26.125C25.9121 52.9999 25.7007 53.0363 25.5 53.1075V31.125H24.25V50.4808L23.1151 50.2386C23.0344 50.2213 22.9578 50.1882 22.8899 50.1412C22.822 50.0942 22.7641 50.0342 22.7195 49.9647C22.675 49.8952 22.6446 49.8175 22.6302 49.7362C22.6158 49.6549 22.6177 49.5715 22.6357 49.4909L23.9182 43.7613L22.6985 43.4879L21.4159 49.2187C21.3619 49.4605 21.3564 49.7105 21.3996 49.9544C21.4428 50.1982 21.5339 50.4312 21.6676 50.6396C21.8013 50.8481 21.975 51.028 22.1787 51.169C22.3823 51.31 22.6119 51.4092 22.8541 51.4609L24.25 51.7589V54.875C24.2506 55.3721 24.4484 55.8487 24.7999 56.2002C25.1514 56.5517 25.6279 56.7494 26.125 56.75H51.125C51.2908 56.75 51.4498 56.6841 51.567 56.5669C51.6842 56.4497 51.75 56.2907 51.75 56.125V49.875H50.5V53H46.7023C47.0638 52.6208 47.3462 52.1734 47.5332 51.6841L50.5 43.8962V48.625H51.75V41.5399L55.4836 25.5555C55.5025 25.475 55.5051 25.3915 55.4915 25.31C55.4778 25.2284 55.4481 25.1504 55.404 25.0804ZM36.9232 30.0828L42.0717 33.1718C42.164 33.2275 42.2405 33.3061 42.2936 33.4C42.3468 33.4939 42.3749 33.5998 42.3752 33.7077V34.9297C42.2337 34.8791 42.0821 34.8633 41.9333 34.8836C41.7844 34.9038 41.6426 34.9596 41.5197 35.0461C41.3969 35.1326 41.2967 35.2474 41.2275 35.3808C41.1583 35.5142 41.1222 35.6622 41.1222 35.8125C41.1222 35.9627 41.1583 36.1108 41.2275 36.2442C41.2967 36.3775 41.3969 36.4923 41.5197 36.5789C41.6426 36.6654 41.7844 36.7212 41.9333 36.7414C42.0821 36.7617 42.2337 36.7459 42.3752 36.6953V41.9022C41.6401 42.4914 40.7534 42.8609 39.8173 42.9681C38.8813 43.0752 37.934 42.9157 37.0847 42.5078C36.2354 42.0999 35.5187 41.4603 35.0172 40.6628C34.5156 39.8652 34.2497 38.9421 34.25 38V33.8252L36.9232 30.0828ZM33 34.25V36.75C32.6685 36.75 32.3506 36.6183 32.1162 36.3839C31.8817 36.1495 31.75 35.8315 31.75 35.5C31.75 35.1685 31.8817 34.8505 32.1162 34.6161C32.3506 34.3817 32.6685 34.25 33 34.25V34.25ZM33.625 44.1027C33.2152 43.2801 33.0013 42.3738 33 41.4547V38C32.9961 39.0979 33.2833 40.1773 33.8322 41.1281C34.3811 42.079 35.1723 42.8673 36.125 43.413V46.125H35.2825C34.5868 45.5822 34.0207 44.8914 33.625 44.1027ZM50.5 55.5H26.125C25.9593 55.5 25.8003 55.4341 25.6831 55.3169C25.5659 55.1997 25.5 55.0407 25.5 54.875C25.5 54.7092 25.5659 54.5503 25.6831 54.433C25.8003 54.3158 25.9593 54.25 26.125 54.25H50.5V55.5ZM46.6726 50.432C46.5268 49.7958 46.1859 49.2211 45.6975 48.788C45.2092 48.355 44.5978 48.0853 43.9487 48.0166L49.5874 42.7807L46.6726 50.432ZM51.75 36.0444V25.3613L54.1226 25.8868L51.75 36.0444Z" fill="black"/>
<path d="M28 25.5H26.75V51.75H28V25.5Z" fill="black"/>
<path d="M31.125 25.5H29.875V30.5H31.125V25.5Z" fill="black"/>
<path d="M48.625 25.5H47.375V30.5H48.625V25.5Z" fill="black"/>
<path d="M36.4375 36.75C36.6229 36.75 36.8042 36.695 36.9583 36.592C37.1125 36.489 37.2327 36.3426 37.3036 36.1713C37.3746 36 37.3932 35.8115 37.357 35.6296C37.3208 35.4477 37.2315 35.2807 37.1004 35.1496C36.9693 35.0185 36.8023 34.9292 36.6204 34.893C36.4385 34.8568 36.25 34.8754 36.0787 34.9464C35.9074 35.0173 35.761 35.1375 35.658 35.2917C35.555 35.4458 35.5 35.6271 35.5 35.8125C35.5003 36.0611 35.5991 36.2994 35.7749 36.4751C35.9506 36.6509 36.1889 36.7497 36.4375 36.75Z" fill="black"/>
<path d="M39.25 40.5C39.7471 40.4994 40.2237 40.3017 40.5752 39.9502C40.9267 39.5987 41.1244 39.1221 41.125 38.625H39.875C39.875 38.7908 39.8092 38.9497 39.6919 39.0669C39.5747 39.1842 39.4158 39.25 39.25 39.25C39.0842 39.25 38.9253 39.1842 38.8081 39.0669C38.6908 38.9497 38.625 38.7908 38.625 38.625H37.375C37.3756 39.1221 37.5733 39.5987 37.9248 39.9502C38.2763 40.3017 38.7529 40.4994 39.25 40.5V40.5Z" fill="black"/>
<path d="M32.4527 48.6298L32.2976 49.8702L37.2976 50.4952L37.4526 49.2548L32.4527 48.6298Z" fill="black"/>
</svg>
