<svg width="76" height="76" viewBox="0 0 76 76" fill="none" xmlns="http://www.w3.org/2000/svg">
<circle cx="38" cy="38" r="38" fill="#E4E4E4"/>
<path d="M54.2095 27.3104C53.4078 25.428 52.1303 23.7866 50.5025 22.5472C48.8747 21.3077 46.9525 20.513 44.9247 20.2409C44.7942 19.9579 44.5766 19.7241 44.3037 19.5736C44.0307 19.4232 43.7168 19.364 43.4079 19.4048C43.0989 19.4455 42.8111 19.5841 42.5865 19.8002C42.3619 20.0163 42.2124 20.2985 42.1597 20.6057C42.0154 21.5193 41.5944 22.3666 40.9536 23.0336C40.5773 23.4415 40.1206 23.7671 39.6122 23.9898C39.1039 24.2125 38.5549 24.3275 37.9999 24.3275C37.4449 24.3275 36.8959 24.2125 36.3875 23.9898C35.8792 23.7671 35.4224 23.4415 35.0461 23.0336C34.4053 22.3665 33.9843 21.519 33.8401 20.6053C33.7847 20.2641 33.6079 19.9543 33.3424 19.733C33.1701 19.589 32.9669 19.4865 32.7487 19.4336C32.5305 19.3807 32.303 19.3787 32.0838 19.4278C31.8647 19.4769 31.6598 19.5758 31.485 19.7167C31.3102 19.8577 31.1702 20.0371 31.0758 20.2408C29.0478 20.5124 27.1253 21.307 25.4973 22.5465C23.8693 23.786 22.5918 25.4278 21.7904 27.3105L18.5256 34.9948C18.4994 35.0565 18.4867 35.123 18.4884 35.1899C18.4901 35.2568 18.5061 35.3226 18.5354 35.3828C18.5646 35.4431 18.6064 35.4963 18.658 35.539C18.7095 35.5817 18.7696 35.6129 18.8343 35.6305L25.6515 37.4804V56.1391C25.6515 56.2634 25.7009 56.3826 25.7888 56.4705C25.8767 56.5584 25.9959 56.6078 26.1203 56.6078H49.8796C50.004 56.6078 50.1232 56.5584 50.2111 56.4705C50.299 56.3826 50.3484 56.2634 50.3484 56.1391V37.4989L57.1668 35.6302C57.2313 35.6125 57.2913 35.5813 57.3427 35.5385C57.3941 35.4958 57.4357 35.4425 57.4648 35.3823C57.494 35.3222 57.5099 35.2565 57.5115 35.1896C57.5132 35.1228 57.5005 35.0564 57.4743 34.9948L54.2095 27.3104ZM50.3484 36.5268V30.857C50.3484 30.7327 50.299 30.6135 50.2111 30.5256C50.1232 30.4377 50.004 30.3883 49.8796 30.3883C49.7553 30.3883 49.6361 30.4377 49.5482 30.5256C49.4603 30.6135 49.4109 30.7327 49.4109 30.857V55.6703H26.589V30.857C26.589 30.7327 26.5396 30.6135 26.4517 30.5256C26.3638 30.4377 26.2446 30.3883 26.1203 30.3883C25.9959 30.3883 25.8767 30.4377 25.7888 30.5256C25.7009 30.6135 25.6515 30.7327 25.6515 30.857V36.509L19.5987 34.8665L22.6534 27.677C23.3766 25.9781 24.5212 24.4916 25.9789 23.3584C27.4367 22.2251 29.1595 21.4824 30.9843 21.2005C31.2067 22.4563 31.7465 23.6345 32.5523 24.623C32.631 24.7192 32.7448 24.7802 32.8685 24.7926C32.9922 24.8049 33.1158 24.7677 33.212 24.6889C33.3083 24.6102 33.3693 24.4965 33.3816 24.3727C33.394 24.249 33.3567 24.1254 33.278 24.0292C32.5498 23.1362 32.0703 22.0667 31.8881 20.9289C31.8726 20.824 31.8894 20.7169 31.9362 20.6218C31.983 20.5266 32.0576 20.448 32.1502 20.3963C32.2427 20.3446 32.3488 20.3222 32.4544 20.3323C32.5599 20.3423 32.6599 20.3841 32.7411 20.4523C32.8333 20.5287 32.8948 20.6358 32.9144 20.7539C33.0886 21.8557 33.5964 22.8777 34.3693 23.682C35.347 24.7031 36.6364 25.2648 38 25.2648C39.3635 25.2648 40.6529 24.7027 41.6305 23.6823C42.4034 22.8779 42.9112 21.8561 43.0854 20.7543C43.1071 20.6347 43.1703 20.5265 43.2638 20.4489C43.3573 20.3712 43.4753 20.329 43.5968 20.3297C43.6721 20.3285 43.7467 20.3439 43.8153 20.3747C43.884 20.4055 43.9451 20.451 43.9942 20.508C44.0434 20.5649 44.0795 20.632 44.0999 20.7044C44.1203 20.7769 44.1246 20.8529 44.1125 20.9272C43.8763 22.4091 43.1363 23.7642 42.0172 24.764C40.912 25.7523 39.4826 26.3008 38 26.3055C36.913 26.3044 35.8467 26.0082 34.915 25.4484C34.8622 25.4165 34.8036 25.3953 34.7426 25.3861C34.6816 25.3769 34.6194 25.3798 34.5595 25.3946C34.4996 25.4095 34.4433 25.4361 34.3937 25.4728C34.3441 25.5095 34.3022 25.5556 34.2705 25.6085C34.2387 25.6614 34.2178 25.72 34.2088 25.7811C34.1997 25.8421 34.2029 25.9043 34.2179 25.9641C34.233 26.024 34.2597 26.0802 34.2966 26.1297C34.3335 26.1792 34.3798 26.2209 34.4328 26.2524C35.5102 26.8996 36.7431 27.2419 38 27.243C39.7119 27.2384 41.3627 26.6058 42.6393 25.4651C43.8872 24.3503 44.724 22.8482 45.015 21.2003C46.8399 21.4824 48.5626 22.2252 50.0205 23.3585C51.4783 24.4917 52.6231 25.978 53.3467 27.6769L56.4018 34.8676L50.3484 36.5268Z" fill="url(#paint0_linear)"/>
<path d="M28.7 31.8836C28.8243 31.8836 28.9435 31.8342 29.0314 31.7463C29.1193 31.6584 29.1687 31.5392 29.1687 31.4148V30.9977C29.1687 30.8733 29.1193 30.7541 29.0314 30.6662C28.9435 30.5783 28.8243 30.5289 28.7 30.5289C28.5756 30.5289 28.4564 30.5783 28.3685 30.6662C28.2806 30.7541 28.2312 30.8733 28.2312 30.9977V31.4148C28.2312 31.5392 28.2806 31.6584 28.3685 31.7463C28.4564 31.8342 28.5756 31.8836 28.7 31.8836V31.8836Z" fill="url(#paint1_linear)"/>
<path d="M29.1687 40.7508V32.911C29.1687 32.7866 29.1193 32.6674 29.0314 32.5795C28.9435 32.4916 28.8243 32.4422 28.7 32.4422C28.5756 32.4422 28.4564 32.4916 28.3685 32.5795C28.2806 32.6674 28.2312 32.7866 28.2312 32.911V40.7508C28.2312 40.8751 28.2806 40.9944 28.3685 41.0823C28.4564 41.1702 28.5756 41.2196 28.7 41.2196C28.8243 41.2196 28.9435 41.1702 29.0314 41.0823C29.1193 40.9944 29.1687 40.8751 29.1687 40.7508Z" fill="url(#paint2_linear)"/>
<path d="M43.0089 37.9524L43.1608 37.8005C43.3718 37.5895 43.5392 37.339 43.6534 37.0633C43.7676 36.7876 43.8264 36.4921 43.8264 36.1937C43.8263 35.8953 43.7676 35.5998 43.6534 35.3241C43.5392 35.0484 43.3718 34.7978 43.1608 34.5868C42.9497 34.3758 42.6992 34.2084 42.4235 34.0942C42.1478 33.98 41.8523 33.9213 41.5539 33.9213C41.2555 33.9213 40.96 33.9801 40.6843 34.0943C40.4086 34.2085 40.1581 34.3759 39.947 34.5869L39.7952 34.7389C38.7375 33.9332 37.5884 33.2552 36.3717 32.7187C36.2596 32.6693 36.1325 32.6658 36.0178 32.709C35.903 32.7522 35.8098 32.8385 35.758 32.9496L32.0053 40.9934L29.4709 43.5272C29.0926 43.9056 28.8801 44.4188 28.8801 44.9539C28.8801 45.489 29.0926 46.0022 29.4709 46.3806L31.3678 48.2776C31.7272 48.6364 32.2087 48.8465 32.7162 48.866C33.2238 48.8855 33.72 48.713 34.106 48.3829L38.2905 52.5674C38.3444 52.6213 38.4107 52.6613 38.4835 52.6838C38.5564 52.7063 38.6336 52.7107 38.7085 52.6966C38.7835 52.6825 38.8538 52.6503 38.9135 52.6029C38.9732 52.5555 39.0205 52.4942 39.0511 52.4244L40.3363 49.4962C40.3742 49.4098 40.3851 49.314 40.3677 49.2212C40.3502 49.1285 40.3052 49.0431 40.2384 48.9764L36.926 45.6639L44.7992 41.9909C44.9103 41.939 44.9967 41.8458 45.0399 41.731C45.083 41.6163 45.0795 41.4892 45.0301 41.377C44.4934 40.16 43.815 39.0105 43.0089 37.9524ZM40.6105 35.2493C40.7972 35.0625 41.035 34.9353 41.294 34.8837C41.553 34.8322 41.8215 34.8586 42.0655 34.9597C42.3095 35.0607 42.518 35.2319 42.6646 35.4515C42.8113 35.6712 42.8895 35.9294 42.8894 36.1934C42.89 36.3687 42.8558 36.5424 42.7887 36.7044C42.7217 36.8664 42.6231 37.0134 42.4988 37.137L42.4183 37.2175C42.1299 36.8797 41.827 36.5508 41.512 36.2362C41.1971 35.9216 40.8677 35.6179 40.5301 35.3299L40.6105 35.2493ZM29.8176 44.9539C29.8172 44.812 29.8449 44.6714 29.8992 44.5403C29.9534 44.4092 30.0331 44.2902 30.1337 44.1901L32.3952 41.9297L33.0436 42.5777L30.0285 45.5934C29.8913 45.4084 29.8174 45.1842 29.8176 44.9539ZM30.6816 46.2656L33.7063 43.2404L34.5078 44.0421L31.4828 47.0668L30.6816 46.2656ZM33.5576 47.6147C33.3749 47.7967 33.1331 47.9074 32.876 47.9267C32.6188 47.9461 32.3632 47.8728 32.1553 47.7202L35.171 44.7052L35.8194 45.3536L33.5576 47.6147ZM39.3491 49.4128L38.4682 51.4195L34.7734 47.7246L36.2172 46.2812L39.3491 49.4128ZM36.5813 44.7896L32.9588 41.1672L35.4808 35.7609C38.2373 37.2493 40.4988 39.5109 41.9872 42.2674L36.5813 44.7896ZM42.8381 41.8707C41.2544 38.9155 38.833 36.494 35.8778 34.9102L36.4109 33.7677C38.5913 34.8042 40.5085 36.3213 42.0184 38.2052C42.7917 39.1699 43.4502 40.2212 43.9807 41.338L42.8381 41.8707Z" fill="url(#paint3_linear)"/>
<path d="M43.8541 34.3625C43.9156 34.3626 43.9765 34.3505 44.0334 34.3269C44.0903 34.3034 44.1419 34.2688 44.1854 34.2253L45.2902 33.1214C45.3781 33.0335 45.4275 32.9143 45.4275 32.79C45.4276 32.6657 45.3782 32.5464 45.2904 32.4585C45.2025 32.3705 45.0832 32.3211 44.9589 32.3211C44.8346 32.321 44.7154 32.3704 44.6274 32.4583L43.5227 33.5625C43.4571 33.628 43.4124 33.7116 43.3943 33.8025C43.3762 33.8935 43.3854 33.9877 43.4209 34.0734C43.4564 34.1591 43.5165 34.2323 43.5936 34.2838C43.6707 34.3353 43.7613 34.3628 43.8541 34.3628V34.3625Z" fill="url(#paint4_linear)"/>
<path d="M42.0168 33.2194C42.0772 33.2313 42.1394 33.2311 42.1997 33.219C42.2601 33.2068 42.3174 33.1829 42.3685 33.1486C42.4196 33.1142 42.4635 33.0701 42.4975 33.0188C42.5315 32.9675 42.5551 32.91 42.5669 32.8495L42.8927 31.187C42.9053 31.1263 42.9059 31.0636 42.8942 31.0027C42.8824 30.9418 42.8588 30.8838 42.8245 30.8321C42.7902 30.7803 42.7459 30.736 42.6944 30.7015C42.6428 30.667 42.5849 30.6431 42.524 30.6311C42.4631 30.6192 42.4004 30.6195 42.3396 30.6319C42.2789 30.6444 42.2212 30.6688 42.1699 30.7037C42.1186 30.7387 42.0748 30.7835 42.0409 30.8355C42.0071 30.8875 41.9839 30.9457 41.9727 31.0067L41.6469 32.6692C41.6351 32.7296 41.6353 32.7918 41.6474 32.8521C41.6596 32.9125 41.6836 32.9698 41.7179 33.0209C41.7523 33.072 41.7963 33.1158 41.8476 33.1499C41.8989 33.1839 41.9564 33.2075 42.0168 33.2194Z" fill="url(#paint5_linear)"/>
<path d="M46.4869 34.9322L44.8806 35.5346C44.8227 35.556 44.7696 35.5886 44.7244 35.6306C44.6791 35.6726 44.6426 35.7231 44.6169 35.7793C44.5913 35.8354 44.5769 35.8961 44.5748 35.9578C44.5726 36.0195 44.5826 36.081 44.6043 36.1388C44.626 36.1966 44.6589 36.2495 44.7011 36.2946C44.7432 36.3397 44.7939 36.3759 44.8502 36.4014C44.9064 36.4268 44.9672 36.4408 45.0289 36.4427C45.0906 36.4446 45.1521 36.4343 45.2098 36.4124L46.8161 35.81C46.9319 35.766 47.0257 35.6778 47.0767 35.5649C47.1277 35.4519 47.132 35.3233 47.0884 35.2073C47.0449 35.0912 46.9572 34.9971 46.8445 34.9456C46.7318 34.894 46.6032 34.8892 46.4869 34.9322V34.9322Z" fill="url(#paint6_linear)"/>
<defs>
<linearGradient id="paint0_linear" x1="38" y1="50.9457" x2="38" y2="34.018" gradientUnits="userSpaceOnUse">
<stop offset="0.322" stop-color="#A163F5"/>
<stop offset="0.466" stop-color="#B074EE"/>
<stop offset="0.752" stop-color="#D8A1DD"/>
<stop offset="0.898" stop-color="#EFBAD3"/>
</linearGradient>
<linearGradient id="paint1_linear" x1="156.631" y1="601.808" x2="156.631" y2="308.282" gradientUnits="userSpaceOnUse">
<stop offset="0.322" stop-color="#A163F5"/>
<stop offset="0.466" stop-color="#B074EE"/>
<stop offset="0.752" stop-color="#D8A1DD"/>
<stop offset="0.898" stop-color="#EFBAD3"/>
</linearGradient>
<linearGradient id="paint2_linear" x1="156.631" y1="3733.9" x2="156.631" y2="1832.07" gradientUnits="userSpaceOnUse">
<stop offset="0.322" stop-color="#A163F5"/>
<stop offset="0.466" stop-color="#B074EE"/>
<stop offset="0.752" stop-color="#D8A1DD"/>
<stop offset="0.898" stop-color="#EFBAD3"/>
</linearGradient>
<linearGradient id="paint3_linear" x1="3961.03" y1="8477.61" x2="3961.03" y2="4138.57" gradientUnits="userSpaceOnUse">
<stop offset="0.322" stop-color="#A163F5"/>
<stop offset="0.466" stop-color="#B074EE"/>
<stop offset="0.752" stop-color="#D8A1DD"/>
<stop offset="0.898" stop-color="#EFBAD3"/>
</linearGradient>
<linearGradient id="paint4_linear" x1="733.681" y1="893.329" x2="733.681" y2="450.939" gradientUnits="userSpaceOnUse">
<stop offset="0.322" stop-color="#A163F5"/>
<stop offset="0.466" stop-color="#B074EE"/>
<stop offset="0.752" stop-color="#D8A1DD"/>
<stop offset="0.898" stop-color="#EFBAD3"/>
</linearGradient>
<linearGradient id="paint5_linear" x1="434.425" y1="1129.52" x2="434.425" y2="564.899" gradientUnits="userSpaceOnUse">
<stop offset="0.322" stop-color="#A163F5"/>
<stop offset="0.466" stop-color="#B074EE"/>
<stop offset="0.752" stop-color="#D8A1DD"/>
<stop offset="0.898" stop-color="#EFBAD3"/>
</linearGradient>
<linearGradient id="paint6_linear" x1="951.344" y1="684.263" x2="951.344" y2="350.619" gradientUnits="userSpaceOnUse">
<stop offset="0.322" stop-color="#A163F5"/>
<stop offset="0.466" stop-color="#B074EE"/>
<stop offset="0.752" stop-color="#D8A1DD"/>
<stop offset="0.898" stop-color="#EFBAD3"/>
</linearGradient>
</defs>
</svg>
