<?xml version="1.0" encoding="iso-8859-1"?>
<!-- Generator: Adobe Illustrator 19.0.0, SVG Export Plug-In . SVG Version: 6.00 Build 0)  -->
<svg version="1.1" id="Capa_1" xmlns="http://www.w3.org/2000/svg" xmlns:xlink="http://www.w3.org/1999/xlink" x="0px" y="0px"
	 viewBox="0 0 512.003 512.003" style="enable-background:new 0 0 512.003 512.003;" xml:space="preserve">
<g>
	<path style="fill:#5381D3;" d="M256.002,114.999c37.95,0,69-31.05,69-69V10h-53.25v43.457h-31.5V10h-53.25v36
		C187.002,83.95,218.052,114.999,256.002,114.999z"/>
	<path style="fill:#F0F0FB;" d="M103.002,471.251v30.75h306v-30.75V280.579h93.001v-30.75v-126.75l-93.001-73.081l-84-39.999v36
		c0,37.95-31.05,69-69,69s-69-31.05-69-69V10l-84,39.999l-93.001,73.08v126.75v30.75h93.001V471.251z"/>
	<g>
		<rect x="240.251" y="10" style="fill:#FF8346;" width="31.5" height="43.46"/>
		<rect x="10.001" y="249.83" style="fill:#FF8346;" width="93" height="30.75"/>
		<rect x="409.001" y="249.83" style="fill:#FF8346;" width="93" height="30.75"/>
	</g>
	<polygon style="fill:#5381D3;" points="304.869,259.036 356.575,259.036 242.523,383.803 265.388,294.965 210.408,294.965 
		253.888,170.199 340.476,170.199 	"/>
	<polygon style="fill:#FF8346;" points="264.069,300.088 242.523,383.803 187.543,383.803 210.408,294.965 253.888,170.199 
		198.908,170.199 155.429,294.965 210.408,294.965 265.388,294.965 	"/>
</g>
<path d="M103.002,151.319c5.523,0,10-4.478,10-10v-0.475c0-5.523-4.477-10-10-10s-10,4.477-10,10v0.475
	C93.002,146.842,97.479,151.319,103.002,151.319z"/>
<path d="M508.181,115.216l-93-73.08c-0.071-0.056-0.149-0.101-0.222-0.155c-0.183-0.136-0.367-0.268-0.559-0.391
	c-0.103-0.066-0.208-0.128-0.313-0.19c-0.205-0.121-0.414-0.235-0.627-0.342c-0.054-0.027-0.104-0.06-0.158-0.086l-84.002-40
	c-0.046-0.022-0.094-0.036-0.14-0.057c-0.23-0.106-0.466-0.201-0.705-0.289c-0.095-0.035-0.188-0.072-0.284-0.104
	c-0.25-0.084-0.506-0.154-0.765-0.218c-0.089-0.022-0.176-0.049-0.265-0.068c-0.272-0.059-0.549-0.103-0.828-0.14
	c-0.078-0.01-0.155-0.027-0.234-0.036C325.725,0.022,325.366,0,325.001,0l0,0h-138l0,0c-0.364,0-0.723,0.022-1.078,0.06
	c-0.079,0.009-0.155,0.025-0.234,0.036c-0.28,0.037-0.557,0.08-0.829,0.14c-0.089,0.019-0.176,0.046-0.264,0.068
	c-0.259,0.064-0.515,0.134-0.766,0.218c-0.096,0.032-0.189,0.069-0.284,0.104c-0.239,0.088-0.474,0.183-0.704,0.288
	c-0.046,0.021-0.095,0.036-0.141,0.058l-84,39.999c-0.055,0.026-0.105,0.06-0.159,0.087c-0.214,0.107-0.423,0.221-0.628,0.343
	c-0.104,0.062-0.208,0.123-0.309,0.188c-0.194,0.125-0.38,0.258-0.564,0.395c-0.071,0.053-0.149,0.098-0.219,0.153l-93,73.08
	c-2.413,1.896-3.821,4.795-3.821,7.863v157.5l0,0c0,5.522,4.477,10,10,10h83v211.422l0,0v0.001c0,5.522,4.477,10,10,10h306.001
	c5.522,0,10-4.478,10-10v-0.001l0,0V290.579h83c5.522,0,10-4.478,10-10l0,0v-157.5C512.003,120.011,510.594,117.112,508.181,115.216
	z M261.751,20v23.457h-11.5V20H261.751z M230.252,20v33.457c0,5.522,4.477,10,10,10h31.5c5.522,0,10-4.478,10-10V20h33.249v26
	c0,32.532-26.467,58.999-59,58.999s-59-26.467-59-58.999V20H230.252z M93.002,70.576v20.861c0,5.522,4.477,10,10,10s10-4.478,10-10
	V56.313l64-30.476V46c0,43.561,35.44,78.999,79,78.999s79-35.438,79-78.999V25.838l64.001,30.476v103.86c0,5.522,4.478,10,10,10
	s10-4.478,10-10V70.576l73,57.364v111.89h-73v-0.688c0-5.522-4.478-10-10-10s-10,4.478-10,10l0,0l0,0v222.11H113.002l0,0V170.404
	l0,0c0-5.522-4.477-10-10-10s-10,4.478-10,10v69.425H20.001v-111.89L93.002,70.576z M399.002,492.001h-286v-10.749h286.001v10.749
	H399.002z M20.001,270.579v-10.75h73v10.75H20.001z M492.002,270.579h-73v-10.75h73V270.579z"/>
<path d="M409.002,199.733c5.522,0,10-4.477,10-10v-0.475c0-5.522-4.478-10-10-10s-10,4.478-10,10v0.475
	C399.002,195.256,403.48,199.733,409.002,199.733z"/>
<path d="M155.429,304.966h42.08l-19.649,76.345c-0.771,2.993-0.113,6.176,1.781,8.619c1.894,2.443,4.812,3.873,7.903,3.873h54.979
	c1.407,0,2.745-0.294,3.96-0.818c0.071-0.031,0.139-0.069,0.21-0.101c0.231-0.106,0.459-0.215,0.68-0.338
	c0.107-0.059,0.21-0.128,0.315-0.191c0.179-0.108,0.358-0.217,0.529-0.336c0.116-0.081,0.227-0.169,0.341-0.255
	c0.155-0.118,0.309-0.236,0.457-0.362c0.11-0.094,0.216-0.194,0.323-0.293c0.145-0.135,0.286-0.272,0.422-0.415
	c0.047-0.049,0.099-0.092,0.145-0.143l114.053-124.767c2.674-2.925,3.368-7.153,1.77-10.78c-1.598-3.626-5.188-5.967-9.15-5.967
	h-36.926l30.108-75.117c1.235-3.081,0.86-6.575-1-9.324c-1.859-2.749-4.963-4.396-8.282-4.396l0,0h-141.57
	c-4.254,0-8.043,2.691-9.443,6.709l-43.479,124.768c-1.066,3.059-0.585,6.443,1.291,9.083
	C149.152,303.397,152.19,304.966,155.429,304.966z M218.16,304.966h34.327l-17.717,68.837h-34.327L218.16,304.966z M295.587,255.316
	c-1.235,3.081-0.86,6.574,1,9.324c1.859,2.749,4.963,4.396,8.282,4.396h29.017l-71.681,78.414l12.867-49.992
	c0.771-2.993,0.113-6.176-1.781-8.619c-1.895-2.443-4.811-3.873-7.903-3.873h-40.904l36.51-104.768h64.702L295.587,255.316z
	 M206.013,180.198h33.8l-36.51,104.768h-33.8L206.013,180.198z"/>
<g>
</g>
<g>
</g>
<g>
</g>
<g>
</g>
<g>
</g>
<g>
</g>
<g>
</g>
<g>
</g>
<g>
</g>
<g>
</g>
<g>
</g>
<g>
</g>
<g>
</g>
<g>
</g>
<g>
</g>
</svg>
