<svg id="filled_outline" height="512" viewBox="0 0 512 512" width="512" xmlns="http://www.w3.org/2000/svg" data-name="filled outline"><path d="m40 24h432v464h-432z" fill="#ffece3"/><path d="m72 56h144v128h-144z" fill="#fb6a83"/><path d="m72 184h144v56h-144z" fill="#8098ab"/><path d="m116 100a16.97055 16.97055 0 0 1 24 0l4 4 4-4a16.97055 16.97055 0 0 1 24 0 16.97055 16.97055 0 0 1 0 24l-28 28-28-28a16.97055 16.97055 0 0 1 0-24z" fill="#ffa3b9"/><path d="m72 272h144v128h-144z" fill="#fb6a83"/><path d="m72 400h144v56h-144z" fill="#8098ab"/><path d="m116 316a16.97055 16.97055 0 0 1 24 0l4 4 4-4a16.97055 16.97055 0 0 1 24 0 16.97055 16.97055 0 0 1 0 24l-28 28-28-28a16.97055 16.97055 0 0 1 0-24z" fill="#ffa3b9"/><path d="m472 16h-432a8.00008 8.00008 0 0 0 -8 8v464a8.00008 8.00008 0 0 0 8 8h432a8.00008 8.00008 0 0 0 8-8v-464a8.00008 8.00008 0 0 0 -8-8zm-8 464h-416v-448h416z"/><path d="m72 248h144a8.00008 8.00008 0 0 0 8-8v-184a8.00008 8.00008 0 0 0 -8-8h-144a8.00008 8.00008 0 0 0 -8 8v184a8.00008 8.00008 0 0 0 8 8zm8-16v-40h128v40zm128-168v112h-128v-112z"/><path d="m256 64h24v16h-24z"/><path d="m296 64h56v16h-56z"/><path d="m280 120h24v16h-24z"/><path d="m320 120h72v16h-72z"/><path d="m408 120h24v16h-24z"/><path d="m248 216h24v16h-24z"/><path d="m288 216h104v16h-104z"/><path d="m408 216h24v16h-24z"/><path d="m248 152h40v16h-40z"/><path d="m304 152h56v16h-56z"/><path d="m376 152h56v16h-56z"/><path d="m248 184h64v16h-64z"/><path d="m328 184h72v16h-72z"/><path d="m416 184h16v16h-16z"/><path d="m72 464h144a8.00008 8.00008 0 0 0 8-8v-184a8.00008 8.00008 0 0 0 -8-8h-144a8.00008 8.00008 0 0 0 -8 8v184a8.00008 8.00008 0 0 0 8 8zm8-16v-40h128v40zm128-168v112h-128v-112z"/><path d="m256 280h24v16h-24z"/><path d="m296 280h56v16h-56z"/><path d="m280 336h24v16h-24z"/><path d="m320 336h72v16h-72z"/><path d="m408 336h24v16h-24z"/><path d="m248 432h24v16h-24z"/><path d="m288 432h104v16h-104z"/><path d="m408 432h24v16h-24z"/><path d="m248 368h40v16h-40z"/><path d="m304 368h56v16h-56z"/><path d="m376 368h56v16h-56z"/><path d="m248 400h64v16h-64z"/><path d="m328 400h72v16h-72z"/><path d="m416 400h16v16h-16z"/><path d="m138.34326 157.65723a8.00063 8.00063 0 0 0 11.31348 0l28-28a24.97138 24.97138 0 0 0 -33.65674-36.83008 24.97136 24.97136 0 0 0 -33.65674 36.83008zm-16.68652-52a8.9814 8.9814 0 0 1 12.68652 0l4 4a8.00182 8.00182 0 0 0 11.31348 0l4-4a8.97038 8.97038 0 1 1 12.68652 12.68554l-22.34326 22.34375-22.34326-22.34375a8.9696 8.9696 0 0 1 0-12.68554z"/><path d="m138.34326 373.65723a8.00063 8.00063 0 0 0 11.31348 0l28-28a24.97138 24.97138 0 0 0 -33.65674-36.83008 24.97136 24.97136 0 0 0 -33.65674 36.83008zm-16.68652-52a8.9814 8.9814 0 0 1 12.68652 0l4 4a8.00182 8.00182 0 0 0 11.31348 0l4-4a8.97038 8.97038 0 1 1 12.68652 12.68554l-22.34326 22.34375-22.34326-22.34375a8.9696 8.9696 0 0 1 0-12.68554z"/></svg>