<svg width="76" height="76" viewBox="0 0 76 76" fill="none" xmlns="http://www.w3.org/2000/svg">
<circle cx="38" cy="38" r="38" fill="#E4E4E4"/>
<path d="M21.125 19.875H54.875V56.125H21.125V19.875Z" fill="#FFECE3"/>
<path d="M23.625 22.375H34.875V32.375H23.625V22.375Z" fill="#FB6A83"/>
<path d="M23.625 32.375H34.875V36.75H23.625V32.375Z" fill="#8098AB"/>
<path d="M27.0624 25.8125C27.1855 25.6894 27.3317 25.5917 27.4925 25.5251C27.6534 25.4585 27.8258 25.4242 27.9999 25.4242C28.174 25.4242 28.3464 25.4585 28.5073 25.5251C28.6681 25.5917 28.8143 25.6894 28.9374 25.8125L29.2499 26.125L29.5624 25.8125C29.6855 25.6894 29.8317 25.5917 29.9925 25.5251C30.1534 25.4585 30.3258 25.4242 30.4999 25.4242C30.674 25.4242 30.8464 25.4585 31.0073 25.5251C31.1681 25.5917 31.3143 25.6894 31.4374 25.8125C31.5605 25.9356 31.6582 26.0818 31.7248 26.2426C31.7914 26.4035 31.8257 26.5759 31.8257 26.75C31.8257 26.9241 31.7914 27.0965 31.7248 27.2574C31.6582 27.4182 31.5605 27.5644 31.4374 27.6875L29.2499 29.875L27.0624 27.6875C26.9393 27.5644 26.8416 27.4182 26.775 27.2574C26.7084 27.0965 26.6741 26.9241 26.6741 26.75C26.6741 26.5759 26.7084 26.4035 26.775 26.2426C26.8416 26.0818 26.9393 25.9356 27.0624 25.8125V25.8125Z" fill="#FFA3B9"/>
<path d="M23.625 39.25H34.875V49.25H23.625V39.25Z" fill="#FB6A83"/>
<path d="M23.625 49.25H34.875V53.625H23.625V49.25Z" fill="#8098AB"/>
<path d="M27.0624 42.6875C27.1855 42.5644 27.3317 42.4667 27.4925 42.4001C27.6534 42.3335 27.8258 42.2992 27.9999 42.2992C28.174 42.2992 28.3464 42.3335 28.5073 42.4001C28.6681 42.4667 28.8143 42.5644 28.9374 42.6875L29.2499 43L29.5624 42.6875C29.6855 42.5644 29.8317 42.4667 29.9925 42.4001C30.1534 42.3335 30.3258 42.2992 30.4999 42.2992C30.674 42.2992 30.8464 42.3335 31.0073 42.4001C31.1681 42.4667 31.3143 42.5644 31.4374 42.6875C31.5605 42.8106 31.6582 42.9568 31.7248 43.1176C31.7914 43.2785 31.8257 43.4509 31.8257 43.625C31.8257 43.7991 31.7914 43.9715 31.7248 44.1324C31.6582 44.2932 31.5605 44.4394 31.4374 44.5625L29.2499 46.75L27.0624 44.5625C26.9393 44.4394 26.8416 44.2932 26.775 44.1324C26.7084 43.9715 26.6741 43.7991 26.6741 43.625C26.6741 43.4509 26.7084 43.2785 26.775 43.1176C26.8416 42.9568 26.9393 42.8106 27.0624 42.6875Z" fill="#FFA3B9"/>
<path d="M54.875 19.25H21.125C20.9592 19.25 20.8003 19.3159 20.6831 19.4331C20.5659 19.5503 20.5 19.7092 20.5 19.875V56.125C20.5 56.2908 20.5659 56.4497 20.6831 56.5669C20.8003 56.6841 20.9592 56.75 21.125 56.75H54.875C55.0408 56.75 55.1997 56.6841 55.3169 56.5669C55.4341 56.4497 55.5 56.2908 55.5 56.125V19.875C55.5 19.7092 55.4341 19.5503 55.3169 19.4331C55.1997 19.3159 55.0408 19.25 54.875 19.25V19.25ZM54.25 55.5H21.75V20.5H54.25V55.5Z" fill="black"/>
<path d="M23.625 37.375H34.875C35.0408 37.375 35.1997 37.3091 35.3169 37.1919C35.4341 37.0747 35.5 36.9158 35.5 36.75V22.375C35.5 22.2092 35.4341 22.0503 35.3169 21.9331C35.1997 21.8159 35.0408 21.75 34.875 21.75H23.625C23.4592 21.75 23.3003 21.8159 23.1831 21.9331C23.0659 22.0503 23 22.2092 23 22.375V36.75C23 36.9158 23.0659 37.0747 23.1831 37.1919C23.3003 37.3091 23.4592 37.375 23.625 37.375V37.375ZM24.25 36.125V33H34.25V36.125H24.25ZM34.25 23V31.75H24.25V23H34.25Z" fill="black"/>
<path d="M38 23H39.875V24.25H38V23Z" fill="black"/>
<path d="M41.125 23H45.5V24.25H41.125V23Z" fill="black"/>
<path d="M39.875 27.375H41.75V28.625H39.875V27.375Z" fill="black"/>
<path d="M43 27.375H48.625V28.625H43V27.375Z" fill="black"/>
<path d="M49.875 27.375H51.75V28.625H49.875V27.375Z" fill="black"/>
<path d="M37.375 34.875H39.25V36.125H37.375V34.875Z" fill="black"/>
<path d="M40.5 34.875H48.625V36.125H40.5V34.875Z" fill="black"/>
<path d="M49.875 34.875H51.75V36.125H49.875V34.875Z" fill="black"/>
<path d="M37.375 29.875H40.5V31.125H37.375V29.875Z" fill="black"/>
<path d="M41.75 29.875H46.125V31.125H41.75V29.875Z" fill="black"/>
<path d="M47.375 29.875H51.75V31.125H47.375V29.875Z" fill="black"/>
<path d="M37.375 32.375H42.375V33.625H37.375V32.375Z" fill="black"/>
<path d="M43.625 32.375H49.25V33.625H43.625V32.375Z" fill="black"/>
<path d="M50.5 32.375H51.75V33.625H50.5V32.375Z" fill="black"/>
<path d="M23.625 54.25H34.875C35.0408 54.25 35.1997 54.1841 35.3169 54.0669C35.4341 53.9497 35.5 53.7908 35.5 53.625V39.25C35.5 39.0842 35.4341 38.9253 35.3169 38.8081C35.1997 38.6909 35.0408 38.625 34.875 38.625H23.625C23.4592 38.625 23.3003 38.6909 23.1831 38.8081C23.0659 38.9253 23 39.0842 23 39.25V53.625C23 53.7908 23.0659 53.9497 23.1831 54.0669C23.3003 54.1841 23.4592 54.25 23.625 54.25V54.25ZM24.25 53V49.875H34.25V53H24.25ZM34.25 39.875V48.625H24.25V39.875H34.25Z" fill="black"/>
<path d="M38 39.875H39.875V41.125H38V39.875Z" fill="black"/>
<path d="M41.125 39.875H45.5V41.125H41.125V39.875Z" fill="black"/>
<path d="M39.875 44.25H41.75V45.5H39.875V44.25Z" fill="black"/>
<path d="M43 44.25H48.625V45.5H43V44.25Z" fill="black"/>
<path d="M49.875 44.25H51.75V45.5H49.875V44.25Z" fill="black"/>
<path d="M37.375 51.75H39.25V53H37.375V51.75Z" fill="black"/>
<path d="M40.5 51.75H48.625V53H40.5V51.75Z" fill="black"/>
<path d="M49.875 51.75H51.75V53H49.875V51.75Z" fill="black"/>
<path d="M37.375 46.75H40.5V48H37.375V46.75Z" fill="black"/>
<path d="M41.75 46.75H46.125V48H41.75V46.75Z" fill="black"/>
<path d="M47.375 46.75H51.75V48H47.375V46.75Z" fill="black"/>
<path d="M37.375 49.25H42.375V50.5H37.375V49.25Z" fill="black"/>
<path d="M43.625 49.25H49.25V50.5H43.625V49.25Z" fill="black"/>
<path d="M50.5 49.25H51.75V50.5H50.5V49.25Z" fill="black"/>
<path d="M28.808 30.317C28.9252 30.4342 29.0842 30.5 29.2499 30.5C29.4157 30.5 29.5746 30.4342 29.6918 30.317L31.8793 28.1295C32.2345 27.7743 32.4389 27.2959 32.4502 26.7939C32.4615 26.2918 32.2788 25.8047 31.94 25.4339C31.6012 25.0632 31.1325 24.8374 30.6314 24.8035C30.1303 24.7697 29.6355 24.9303 29.2499 25.2521C28.8643 24.9303 28.3695 24.7697 27.8684 24.8035C27.3673 24.8374 26.8986 25.0632 26.5598 25.4339C26.221 25.8047 26.0383 26.2918 26.0496 26.7939C26.0609 27.2959 26.2654 27.7743 26.6205 28.1295L28.808 30.317ZM27.5043 26.2545C27.6359 26.1232 27.8141 26.0495 27.9999 26.0495C28.1857 26.0495 28.3639 26.1232 28.4955 26.2545L28.808 26.567C28.9252 26.6841 29.0842 26.7499 29.2499 26.7499C29.4157 26.7499 29.5746 26.6841 29.6918 26.567L30.0043 26.2545C30.0694 26.1893 30.1467 26.1376 30.2317 26.1023C30.3168 26.067 30.4079 26.0489 30.5 26.0488C30.5921 26.0488 30.6832 26.0669 30.7683 26.1021C30.8534 26.1373 30.9307 26.189 30.9958 26.2541C31.0609 26.3192 31.1125 26.3965 31.1478 26.4815C31.183 26.5666 31.2011 26.6578 31.2011 26.7499C31.201 26.8419 31.1829 26.9331 31.1476 27.0181C31.1123 27.1032 31.0606 27.1805 30.9955 27.2455L29.2499 28.9911L27.5043 27.2455C27.4393 27.1804 27.3876 27.1032 27.3524 27.0182C27.3172 26.9331 27.2991 26.842 27.2991 26.75C27.2991 26.658 27.3172 26.5668 27.3524 26.4818C27.3876 26.3968 27.4393 26.3195 27.5043 26.2545V26.2545Z" fill="black"/>
<path d="M28.808 47.192C28.9252 47.3091 29.0842 47.375 29.2499 47.375C29.4157 47.375 29.5746 47.3091 29.6918 47.192L31.8793 45.0045C32.2345 44.6493 32.4389 44.1709 32.4502 43.6689C32.4615 43.1668 32.2788 42.6797 31.94 42.3089C31.6012 41.9382 31.1325 41.7124 30.6314 41.6785C30.1303 41.6447 29.6355 41.8053 29.2499 42.1271C28.8643 41.8053 28.3695 41.6447 27.8684 41.6785C27.3673 41.7124 26.8986 41.9382 26.5598 42.3089C26.221 42.6797 26.0383 43.1668 26.0496 43.6688C26.0609 44.1709 26.2654 44.6493 26.6205 45.0045L28.808 47.192ZM27.5043 43.1295C27.6359 42.9982 27.8141 42.9245 27.9999 42.9245C28.1857 42.9245 28.3639 42.9982 28.4955 43.1295L28.808 43.442C28.9252 43.5591 29.0842 43.6249 29.2499 43.6249C29.4157 43.6249 29.5746 43.5591 29.6918 43.442L30.0043 43.1295C30.0694 43.0643 30.1467 43.0126 30.2317 42.9773C30.3168 42.942 30.4079 42.9239 30.5 42.9238C30.5921 42.9238 30.6832 42.9419 30.7683 42.9771C30.8534 43.0123 30.9307 43.064 30.9958 43.1291C31.0609 43.1942 31.1125 43.2715 31.1478 43.3565C31.183 43.4416 31.2011 43.5328 31.2011 43.6249C31.201 43.7169 31.1829 43.8081 31.1476 43.8931C31.1123 43.9782 31.0606 44.0555 30.9955 44.1205L29.2499 45.8661L27.5043 44.1205C27.4393 44.0554 27.3876 43.9782 27.3524 43.8932C27.3172 43.8081 27.2991 43.717 27.2991 43.625C27.2991 43.533 27.3172 43.4418 27.3524 43.3568C27.3876 43.2718 27.4393 43.1945 27.5043 43.1295V43.1295Z" fill="black"/>
</svg>
