<svg id="Layer_1" height="512" viewBox="0 0 512 512" width="512" xmlns="http://www.w3.org/2000/svg" xmlns:xlink="http://www.w3.org/1999/xlink" data-name="Layer 1"><linearGradient id="linear-gradient" gradientUnits="userSpaceOnUse" x1="256" x2="256" y1="421.705" y2="205.031"><stop offset=".322" stop-color="#a163f5"/><stop offset=".466" stop-color="#b074ee"/><stop offset=".752" stop-color="#d8a1dd"/><stop offset=".898" stop-color="#efbad3"/></linearGradient><linearGradient id="linear-gradient-2" x1="136.96" x2="136.96" xlink:href="#linear-gradient" y1="421.705" y2="205.031"/><linearGradient id="linear-gradient-4" x1="242.879" x2="242.879" xlink:href="#linear-gradient" y1="421.705" y2="205.031"/><linearGradient id="linear-gradient-5" x1="338" x2="338" xlink:href="#linear-gradient" y1="421.705" y2="205.031"/><linearGradient id="linear-gradient-6" x1="310.655" x2="310.655" xlink:href="#linear-gradient" y1="421.705" y2="205.031"/><linearGradient id="linear-gradient-7" x1="356.46" x2="356.46" xlink:href="#linear-gradient" y1="421.705" y2="205.031"/><path d="m463.482 119.173a151 151 0 0 0 -118.845-90.489 18.689 18.689 0 0 0 -35.392 4.669 57.9 57.9 0 0 1 -15.438 31.077 51.436 51.436 0 0 1 -75.616 0 57.894 57.894 0 0 1 -15.437-31.082 18.366 18.366 0 0 0 -6.371-11.165 18.732 18.732 0 0 0 -29.012 6.5 150.944 150.944 0 0 0 -118.853 90.491l-41.79 98.36a6 6 0 0 0 3.951 8.136l87.261 23.679v238.831a6 6 0 0 0 6 6h304.12a6 6 0 0 0 6-6v-238.594l87.276-23.919a6 6 0 0 0 3.936-8.133zm-49.422 117.97v-72.573a6 6 0 0 0 -12 0v317.61h-292.12v-317.61a6 6 0 0 0 -12 0v72.345l-77.476-21.023 39.1-92.026a138.945 138.945 0 0 1 106.636-82.899 95.753 95.753 0 0 0 20.07 43.807 6 6 0 1 0 9.289-7.6 83.753 83.753 0 0 1 -17.791-39.684 6.689 6.689 0 0 1 10.919-6.1 6.363 6.363 0 0 1 2.218 3.86 69.833 69.833 0 0 0 18.622 37.48c12.515 13.07 29.019 20.26 46.473 20.26s33.958-7.195 46.471-20.257a69.837 69.837 0 0 0 18.623-37.478 6.615 6.615 0 0 1 6.546-5.435 6.585 6.585 0 0 1 6.6 7.648 83.47 83.47 0 0 1 -26.819 49.111 77.5 77.5 0 0 1 -51.421 19.731 76.813 76.813 0 0 1 -39.488-10.97 6 6 0 1 0 -6.172 10.291 88.814 88.814 0 0 0 45.66 12.679 89.486 89.486 0 0 0 59.383-22.756 95.462 95.462 0 0 0 30.41-54.59 139 139 0 0 1 106.645 82.9l39.105 92.042z" fill="url(#linear-gradient)"/><path d="m136.96 177.71a6 6 0 0 0 6-6v-5.34a6 6 0 0 0 -12 0v5.34a6 6 0 0 0 6 6z" fill="url(#linear-gradient-2)"/><path d="m142.96 291.21v-100.35a6 6 0 0 0 -12 0v100.35a6 6 0 0 0 12 0z" fill="url(#linear-gradient-2)"/><path d="m320.115 255.391 1.944-1.944a29.087 29.087 0 1 0 -41.136-41.135l-1.943 1.946a216.386 216.386 0 0 0 -43.821-25.858 6 6 0 0 0 -7.856 2.955l-48.034 102.96-32.441 32.433a25.833 25.833 0 0 0 0 36.524l24.28 24.281a25.839 25.839 0 0 0 35.049 1.348l53.562 53.562a6 6 0 0 0 9.736-1.831l16.45-37.48a6 6 0 0 0 -1.252-6.654l-42.4-42.4 100.778-47.015a6 6 0 0 0 2.955-7.857 216.4 216.4 0 0 0 -25.871-43.835zm-30.7-34.6a17.085 17.085 0 0 1 29.17 12.085 16.945 16.945 0 0 1 -5 12.078l-1.03 1.03c-3.691-4.324-7.569-8.534-11.6-12.561s-8.247-7.914-12.569-11.6zm-138.149 124.219a13.738 13.738 0 0 1 4.046-9.777l28.947-28.933 8.3 8.295-38.594 38.6a13.719 13.719 0 0 1 -2.699-8.185zm11.059 16.79 38.716-38.723 10.259 10.262-38.72 38.716zm36.813 17.268a13.831 13.831 0 0 1 -17.949 1.35l38.6-38.592 8.3 8.3zm74.131 23.016-11.275 25.686-47.294-47.295 18.481-18.475zm-35.427-59.177-46.368-46.367 32.281-69.2a205.73 205.73 0 0 1 83.282 83.283zm80.087-37.362a217.82 217.82 0 0 0 -89.092-89.094l6.823-14.625a204.511 204.511 0 0 1 71.777 56.8 204.251 204.251 0 0 1 25.117 40.1z" fill="url(#linear-gradient-4)"/><path d="m330.93 209.44a5.986 5.986 0 0 0 4.241-1.756l14.141-14.13a6 6 0 0 0 -8.483-8.488l-14.141 14.134a6 6 0 0 0 4.242 10.244z" fill="url(#linear-gradient-5)"/><path d="m307.417 194.808a5.993 5.993 0 0 0 7.041-4.734l4.17-21.28a6 6 0 1 0 -11.775-2.308l-4.17 21.28a6 6 0 0 0 4.734 7.042z" fill="url(#linear-gradient-6)"/><path d="m364.634 216.732-20.561 7.71a6 6 0 1 0 4.213 11.236l20.561-7.71a6 6 0 0 0 -4.213-11.236z" fill="url(#linear-gradient-7)"/></svg>