<svg width="76" height="76" viewBox="0 0 76 76" fill="none" xmlns="http://www.w3.org/2000/svg">
<circle cx="38" cy="38" r="38" fill="#E4E4E4"/>
<g clip-path="url(#clip0)">
<path d="M50.4985 20.8034L47.0505 18.4163C46.3602 19.172 45.2009 19.3205 44.3361 18.7217L27.0582 43.678C27.9231 44.2768 28.1922 45.4141 27.7278 46.3261L31.1758 48.7133C31.866 47.9575 33.0253 47.8091 33.8902 48.4079C34.755 49.0066 35.0242 50.144 34.5598 51.056L38.0078 53.4431C38.698 52.6874 39.8573 52.539 40.7222 53.1377L58 28.1813C57.1352 27.5826 56.866 26.4452 57.3304 25.5332L53.8824 23.1461C53.1922 23.9018 52.0329 24.0502 51.168 23.4515C50.3033 22.8528 50.0341 21.7154 50.4985 20.8034Z" fill="#F2CC7B"/>
<path d="M40.1047 49.8605L51.8998 32.8228L42.1389 26.0654L30.3438 43.1032L40.1047 49.8605Z" fill="#F25F60"/>
<path d="M38.0292 35.8225L40.9228 36.6903L42.6424 34.2065L42.7111 37.2267L45.6048 38.0946L42.7536 39.0933L42.8224 42.1135L40.9915 39.7105L38.1404 40.7093L39.86 38.2254L38.0292 35.8225Z" fill="#F2F2F2"/>
<path opacity="0.1" d="M37.2778 52.938L43.815 25.0797L41.772 24.6003L41.9456 22.7962L41.5754 22.7094L27.0582 43.678C27.9231 44.2768 28.1922 45.4141 27.7278 46.3261L31.1759 48.7133C31.866 47.9576 33.0254 47.8091 33.8903 48.4079C34.7551 49.0066 35.0243 50.144 34.5599 51.056L37.2778 52.938Z" fill="black"/>
<path d="M31.431 22.637L27.3482 21.6789C26.9828 22.6349 25.9585 23.1978 24.9345 22.9574L18 52.5084C19.024 52.7487 19.6912 53.7084 19.5932 54.7273L23.6759 55.6853C24.0413 54.7294 25.0657 54.1665 26.0897 54.4068C27.1137 54.6471 27.7809 55.6068 27.6829 56.6256L31.7657 57.5837C32.131 56.6277 33.1554 56.0648 34.1794 56.3052L41.1137 26.7542C40.0897 26.514 39.4225 25.5542 39.5205 24.5354L35.4378 23.5774C35.0725 24.5333 34.0481 25.0962 33.0241 24.8559C32 24.6154 31.333 23.6558 31.431 22.637Z" fill="#FFD782"/>
<path d="M25.2375 28.2436C25.1866 28.2436 25.1347 28.2378 25.0829 28.2257L23.7703 27.9176C23.4078 27.8326 23.1829 27.4698 23.268 27.1073C23.353 26.7449 23.7158 26.5199 24.0783 26.605L25.391 26.9131C25.7535 26.9981 25.9784 27.3609 25.8933 27.7234C25.8205 28.034 25.5434 28.2436 25.2375 28.2436Z" fill="#FF6465"/>
<path d="M36.081 30.788C36.03 30.788 35.9782 30.7822 35.9264 30.77L33.2155 30.1339C32.853 30.0489 32.6281 29.6861 32.7132 29.3236C32.7982 28.9611 33.1608 28.7361 33.5235 28.8213L36.2344 29.4575C36.5969 29.5425 36.8218 29.9053 36.7367 30.2678C36.6639 30.5784 36.3869 30.788 36.081 30.788ZM30.6593 29.5158C30.6084 29.5158 30.5566 29.51 30.5047 29.4979L27.7938 28.8617C27.4313 28.7767 27.2064 28.4139 27.2916 28.0514C27.3766 27.6889 27.7392 27.464 28.1019 27.5491L30.8128 28.1853C31.1753 28.2703 31.4002 28.6331 31.315 28.9956C31.2422 29.3062 30.9653 29.5158 30.6593 29.5158Z" fill="#FF6465"/>
<path d="M40.1045 31.7323C40.0536 31.7323 40.0017 31.7264 39.9499 31.7143L38.6372 31.4062C38.2747 31.3212 38.0498 30.9584 38.135 30.5959C38.22 30.2335 38.5829 30.0085 38.9453 30.0937L40.2579 30.4017C40.6204 30.4867 40.8454 30.8495 40.7602 31.212C40.6874 31.5227 40.4104 31.7323 40.1045 31.7323Z" fill="#FF6465"/>
<path d="M32.4061 53.4827L37.1414 33.3086L25.5837 30.5958L20.8484 50.7698L32.4061 53.4827Z" fill="#FF6465"/>
<path d="M25.3304 41.1799L28.3408 40.9274L29.031 37.9864L30.2013 40.7714L33.2117 40.5189L30.9247 42.4926L32.095 45.2777L29.5112 43.7125L27.2241 45.6862L27.9143 42.7451L25.3304 41.1799Z" fill="white"/>
<path d="M42.9277 23.798C42.7953 23.798 42.6616 23.7592 42.5446 23.6781L41.436 22.9106C41.1298 22.6986 41.0535 22.2786 41.2655 21.9725C41.4774 21.6663 41.8975 21.59 42.2035 21.802L43.3121 22.5695C43.6183 22.7814 43.6946 23.2014 43.4827 23.5075C43.3517 23.6966 43.1415 23.798 42.9277 23.798Z" fill="#F25F60"/>
<path d="M52.0852 30.1379C51.9527 30.1379 51.8191 30.099 51.702 30.018L49.4127 28.433C49.1065 28.221 49.0301 27.801 49.2421 27.495C49.4541 27.1888 49.8741 27.1125 50.1802 27.3245L52.4695 28.9095C52.7757 29.1214 52.852 29.5414 52.6401 29.8474C52.5092 30.0364 52.2989 30.1379 52.0852 30.1379ZM47.5065 26.9679C47.3741 26.9679 47.2404 26.929 47.1233 26.848L44.834 25.263C44.5278 25.051 44.4515 24.631 44.6634 24.325C44.8754 24.0188 45.2954 23.9425 45.6015 24.1545L47.8908 25.7395C48.197 25.9514 48.2734 26.3714 48.0614 26.6775C47.9305 26.8665 47.7202 26.9679 47.5065 26.9679Z" fill="#F25F60"/>
<path d="M55.483 32.4904C55.3506 32.4904 55.2169 32.4515 55.0999 32.3705L53.9913 31.603C53.6851 31.391 53.6088 30.971 53.8208 30.665C54.0327 30.3588 54.4528 30.2825 54.7588 30.4944L55.8674 31.2619C56.1736 31.4739 56.2499 31.8939 56.0379 32.2C55.9071 32.3889 55.6968 32.4904 55.483 32.4904Z" fill="#F25F60"/>
</g>
<defs>
<clipPath id="clip0">
<rect width="40" height="40" fill="white" transform="translate(18 18)"/>
</clipPath>
</defs>
</svg>
